<?xml version="1.0" standalone="no"?>
<!DOCTYPE svg PUBLIC "-//W3C//DTD SVG 1.1//EN" "http://www.w3.org/Graphics/SVG/1.1/DTD/svg11.dtd" >
<svg xmlns="http://www.w3.org/2000/svg" xmlns:xlink="http://www.w3.org/1999/xlink" version="1.1">
<metadata>
Created by FontForge 20150318 at Sun May 10 08:59:50 2015
 By uniteet7
Copyright (c) Johan Holmdahl, 1999. No rights reserved.
</metadata>
<defs>
<font id="AnotherTypewriter" horiz-adv-x="613" >
  <font-face 
    font-family="AnotherTypewriter"
    font-weight="400"
    font-stretch="normal"
    units-per-em="1000"
    panose-1="0 0 0 0 0 0 0 0 0 0"
    ascent="800"
    descent="-200"
    x-height="513"
    cap-height="724"
    bbox="9 -211 880 1002"
    underline-thickness="50"
    underline-position="-75"
    unicode-range="U+0020-E002"
  />
<missing-glyph horiz-adv-x="500" 
 />
    <glyph glyph-name=".notdef" horiz-adv-x="500" 
 />
    <glyph glyph-name=".null" unicode="&#xe000;" horiz-adv-x="0" 
 />
    <glyph glyph-name="nonmarkingreturn" unicode="&#xe001;" horiz-adv-x="500" 
 />
    <glyph glyph-name="space" unicode=" " horiz-adv-x="500" 
 />
    <glyph glyph-name="exclam" unicode="!" horiz-adv-x="197" 
d="M25 91q0 -34 17.5 -61t55.5 -27q12 0 24.5 4.5t23.5 11.5q11 14 21.5 29.5t10.5 34.5q0 16 -6 32t-17 28.5t-25.5 20t-31.5 7.5q-36 0 -54.5 -24t-18.5 -56zM10 666q0 -14 4.5 -24t7.5 -24q5 -25 9 -54t6 -55q4 -47 6 -91.5t6 -91.5q2 -22 14.5 -40.5t35.5 -18.5
q14 0 20 4.5t16 15.5q8 23 12 47.5t5.5 50t2.5 51.5t3 50q4 40 12.5 79.5t14.5 79.5v13q0 8 -1.5 18t-5.5 18.5t-11 14.5t-17 6h-105q-21 0 -28 -16t-7 -33z" />
    <glyph glyph-name=".0034" unicode="&#x22;" horiz-adv-x="433" 
d="M29 408q0 -20 14.5 -26t31.5 -6q28 0 49.5 23t35 54.5t20.5 65t7 54.5q0 8 -2.5 25.5t-7 36t-11.5 34t-15 20.5q-5 3 -13 7t-15.5 7.5t-13 6.5l-5.5 3h-27l-6 -3t-13.5 -6.5t-15 -7.5t-12.5 -7q-6 -3 -9.5 -10t-6 -15.5t-3.5 -17t-1 -14.5q0 -27 11.5 -42t26 -24
t26 -15.5t11.5 -17.5q0 -18 -9 -33.5t-19.5 -30t-19 -29t-8.5 -32.5zM264 419q0 -20 14.5 -26t31.5 -6q28 0 49.5 23t35 55t20.5 65.5t7 54.5q0 8 -2.5 25.5t-7 36t-11.5 34t-15 20.5q-5 3 -12.5 6.5t-15 7.5t-13 6.5t-6.5 2.5h-3l-9.5 -2.5t-21.5 -6.5t-24 -7.5t-17 -6.5
t-9 -10.5t-6 -16t-3 -17t-1 -13.5q0 -27 11.5 -42t26 -24t26 -15.5t11.5 -17.5q0 -18 -9 -33.5t-19.5 -30t-19 -29.5t-8.5 -33z" />
    <glyph glyph-name=".0035" unicode="#" horiz-adv-x="500" 
d="M180 295l-114 -1q-10 0 -17 -8.5t-10 -18.5q-2 -4 -2.5 -7.5t-0.5 -6.5q0 -7 4 -12t12 -4h106l-56 -151q0 -1 -0.5 -3t-0.5 -4q-1 0 -1 -1v0l-1.5 -4.5t-0.5 -3.5q0 -8 4 -14t10 -6q1 0 2.5 -0.5t2.5 -0.5q3 0 6.5 0.5t6.5 0.5q7 3 13 8.5t8 14.5l64 164h137l-57 -158
q0 -1 -0.5 -2t-0.5 -2v-2q-1 -1 -1.5 -2.5l-0.5 -1.5q0 -8 5.5 -12.5t11.5 -6.5h7h9q7 2 13 6t7 10l64 171l129 -1q19 0 31 9.5t14 20.5v3q0 3 -1 6q-2 7 -9 13t-20 7h-123l50 142l115 -1q14 0 23.5 9t12.5 20v5v3q-1 7 -8 13.5t-21 7.5h-99l57 143q0 1 0.5 2.5t0.5 3.5
q1 4 1 7v6q0 8 -4 12t-8 5q-1 1 -4 1t-7 -1t-7 -2q-20 -8 -27 -22q-1 -1 -1.5 -2.5l-0.5 -1.5l-59 -151h-135l57 158v10q0 6 -4 10t-8 5q-1 1 -4 1q-4 0 -12 -2q-7 -3 -13.5 -7.5t-8.5 -9.5l-65 -165l-142 -1l-6 -2q-6 -3 -11 -10.5t-7 -15.5q-1 -3 -1 -7q0 -8 6 -15t19 -6
h120zM373 295h-136l51 142h135z" />
    <glyph glyph-name="dollar" unicode="$" horiz-adv-x="545" 
d="M10 143q6 -3 12 -16t13 -28t15 -29t19 -20q2 -1 10.5 -2t10.5 -2t10.5 -10t10.5 -11q8 -6 18.5 -6.5t19.5 -5.5q4 -2 11 -8.5t7 -8.5v-122h68v113q9 2 13 5.5t12 3.5q3 0 7 -0.5t3 -6.5h38v-107q-5 -2 -5 -8h74q0 2 -0.5 8.5t-5.5 8.5v96q0 4 11 8t25 8.5t27 10t17 11.5
q1 1 2 6.5t2 6.5q5 4 15 6t14 6q5 5 12.5 21t15 33t14 31t9.5 16v113q-5 3 -8.5 11t-6.5 17.5t-5.5 18t-4.5 12.5q-2 2 -11 10.5t-10 10.5q-1 1 -2.5 6.5t-2.5 6.5q-5 10 -14 10.5t-15 10.5q-1 1 -2 6t-2 6q-6 6 -13.5 8.5t-16.5 4t-17.5 3t-15.5 5.5q-5 3 -7 8t-2.5 10.5
t-2 9.5t-5.5 6v206q5 2 6.5 7.5t1.5 9.5h11q9 0 13 -4t7 -9t6.5 -11t9.5 -10v-46q-11 -6 -16.5 -22t-5.5 -27q0 -4 2 -11.5t5.5 -14.5t8.5 -12.5t10 -5.5h63q2 0 11.5 10t13.5 16q1 1 2.5 10t1.5 11q1 0 2 1.5t2 2.5v38q-1 0 -2 1.5t-2 2.5q-5 16 -15.5 35.5t-13.5 35.5
l-34 34q-8 0 -10 1.5t-3 3.5t-3 5t-9 6q-2 1 -10.5 2.5t-10.5 2.5q-9 3 -17 9t-19 7v63l-10 9h-30l-10 -9v-37q-3 -1 -10.5 -5t-10.5 -4h-2l-4 4q0 1 -1 1h-1q-2 0 -3 -1l-4 -4q-2 0 -7 -0.5t-7 -0.5q-23 0 -31 17.5t-5 38.5q-8 2 -12 5.5t-11 3.5q-8 0 -12.5 -4t-8.5 -8.5
t-7 -8.5t-6 -5v-46q0 -1 -8 -5.5t-18 -10t-19 -9.5t-11 -5l-38 -37q-7 2 -10 -1t-4.5 -8t-1.5 -10t-1 -6q-1 -2 -6.5 -7t-6.5 -6q-3 -5 -4.5 -13t-3.5 -16t-3.5 -14.5t-4.5 -6.5v-89q1 -1 6.5 -9.5t11.5 -18.5t10.5 -19t4.5 -11l34 -36h38q1 -6 8 -8.5t13 -14.5q0 -4 4 -4
v-273q-6 -2 -6.5 -6.5t-0.5 -9.5t-2 -8.5t-10 -3.5q-2 0 -6 1t-5 2l-33 33l-0.5 3.5t-0.5 5.5q0 4 3.5 13.5t8.5 19t10 17t8 8.5v30q-3 1 -5.5 10.5t-8.5 20t-18.5 19.5t-36.5 9q-2 0 -9 -2t-14.5 -5t-13.5 -6t-7 -4q-2 -3 -3 -9.5t-2.5 -13t-4 -12t-7.5 -7.5v-63zM237 59
v189l4 4v38l-4 4v74q2 0 10.5 -1t10.5 -2q1 0 2.5 -2.5t1.5 -3.5h46v-292q0 -2 -6.5 -8.5t-10.5 -8.5l-6 -0.5t-8 -0.5t-7.5 0.5t-7.5 0.5q0 1 -1.5 2.5l-2.5 2.5q-2 1 -10.5 2t-10.5 2zM363 290l6 4v48q7 0 12 -1.5l10 -3t11 -3.5t15 -2q4 -20 17.5 -31.5t24.5 -27.5
q1 -2 2.5 -10.5t1.5 -10.5l2.5 -2.5t2.5 -1.5v-89q-2 -1 -7 -8t-10.5 -15.5t-10.5 -16.5t-6 -10q-6 -8 -12 -12.5t-12.5 -8.5t-13 -8.5t-12.5 -12.5h-7q-4 0 -9 1t-5 8v214zM283 434h-46v175l6 4v63q3 0 10 1.5t9 6.5h46l8 -8v-239q0 -8 -7 -8.5t-11 -0.5h-9t-6 6zM100 512
v38q-1 0 -3 1.5t-3 2.5v2q0 9 3.5 21t9.5 25t13.5 23.5t15.5 16.5q1 1 6.5 2.5t6.5 2.5q6 5 6.5 9.5t2 7.5t6.5 4.5t18 1.5v-208q-5 -3 -5 -8q0 -4 -3 -9h-2q-13 0 -24.5 10.5t-21 23t-16.5 23t-10 10.5z" />
    <glyph glyph-name="percent" unicode="%" horiz-adv-x="664" 
d="M9 -57q0 -19 12.5 -26t29.5 -7q14 0 25.5 4t19.5 16q122 174 242 348t248 345q9 12 20 25t21.5 27.5t17.5 30t7 32.5q0 19 -7.5 32.5t-19.5 21.5t-28 11.5t-33 3.5h-29q-10 -3 -17 -8.5t-14 -12.5t-13.5 -14t-14.5 -12q-23 -16 -51.5 -24.5t-54.5 -18.5
q-19 -8 -36.5 -18.5t-37.5 -13.5q-3 0 -15 -0.5t-26 -1.5t-26 -1.5t-15 -0.5q-38 -3 -71 -24.5t-57.5 -53.5t-38.5 -70t-14 -73q0 -29 9.5 -54.5t26.5 -44t41.5 -29.5t54.5 -11q33 0 65 21.5t57 53.5t40.5 69t15.5 68q0 14 -2 28.5t-2 28.5q0 12 4.5 18t12 9t16.5 4.5
t18 4.5q12 4 32.5 15.5t42 23.5t39.5 21.5t25 9.5q0 -14 -6.5 -26.5t-16 -24.5t-20 -23.5t-18.5 -22.5q-18 -26 -34.5 -52.5t-35.5 -53.5q-1 -1 -4.5 -5t-7.5 -8.5t-7.5 -8.5t-4.5 -5q-1 -2 -4.5 -8t-7.5 -13.5t-7 -14t-4 -7.5q-33 -48 -69.5 -93.5t-71.5 -90.5
q-2 -2 -8 -11.5t-8 -12.5q-1 -1 -3.5 -6.5t-6 -12.5l-6.5 -13t-4 -7q-1 -2 -6.5 -7.5t-11.5 -12t-11 -12.5t-6 -7q-2 -2 -8 -13.5t-7 -13.5q-26 -36 -54.5 -71t-55.5 -70q-1 -2 -2.5 -4.5t-1.5 -3.5t-0.5 -7.5t-0.5 -10.5zM256 38q0 -13 5 -22q20 -46 50 -72t81 -26
q17 0 37 5.5t38.5 15.5t34.5 23.5t25 29.5q18 31 32.5 63t14.5 68q0 38 -16 68.5t-43 55.5q-16 5 -39 10t-41 5h-2q-4 -1 -12 -2.5t-16.5 -3.5t-16 -3.5t-10.5 -1.5q-20 -5 -32.5 -20t-26.5 -31q-1 -2 -7 -11t-8 -13q-2 -3 -6 -8.5t-8.5 -12.5t-8.5 -14t-5 -12l-19 -86
l-0.5 -2t-0.5 -3zM342 67q0 14 2 25.5t7 25.5l15 17.5t19 20.5t22 17.5t24 7.5q18 0 33.5 -9t23.5 -27v-26q0 -18 -7 -37t-19.5 -35t-29.5 -26t-37 -10q-53 0 -53 56zM115 469q0 21 8.5 42.5t23.5 38.5t34.5 27.5t42.5 10.5q5 0 12.5 -1.5t14.5 -5t12 -9t5 -12.5v-59
q0 -7 -9 -20.5t-20.5 -27t-22 -24t-14.5 -10.5h-59q-8 0 -13.5 5.5t-8.5 13.5t-4.5 16.5t-1.5 14.5z" />
    <glyph glyph-name="ampersand" unicode="&#x26;" horiz-adv-x="621" 
d="M10 194q0 -47 22.5 -85t55.5 -67q7 -6 10.5 -10t6.5 -7t7 -5t12 -5q20 -8 45 -10t47 -2q35 0 61 14t54 33q9 6 15.5 19t17.5 13q1 0 3 -0.5t3 -0.5q25 -29 57 -49.5t70 -20.5q11 0 23 0.5t23 7.5q26 21 46 50t20 65q0 18 -9 33.5t-29 15.5q-15 0 -23.5 -8t-15 -19
t-13 -23t-16.5 -20q-2 -1 -9.5 -1.5t-9.5 -0.5q-7 0 -19 5t-24 13t-21 17.5t-11 17.5v25q0 7 2.5 23.5t7.5 36.5t11.5 41t15.5 38.5t19.5 28.5t22.5 11t18.5 -9.5t13 -20.5t15.5 -20.5t25 -9.5q23 0 28.5 14t5.5 33q0 18 -7.5 38t-20.5 37t-31 28t-38 11q-13 0 -26.5 -5.5
t-26 -14t-23.5 -19t-19 -20.5q-8 -9 -17.5 -31t-17.5 -44.5t-14.5 -40t-9.5 -17.5q-7 0 -17.5 14.5t-21 33t-18 35.5t-7.5 21q0 11 7 19t16.5 15.5t20 14.5t16.5 15q22 29 36.5 67.5t14.5 74.5q0 16 -3 29.5t-9 28.5q-2 6 -6 15l-8 18t-6.5 15.5l-2.5 6.5l-16 16l-7 2.5
t-16.5 5.5t-19.5 6t-16 5q-11 4 -16 4.5t-17 0.5q-33 0 -55.5 -16t-37 -40.5t-21 -54t-6.5 -56.5v-34q0 -2 1.5 -8.5t3.5 -14t4 -14.5t3 -10q0 -1 2.5 -5.5t5.5 -10t5.5 -10t2.5 -5.5t0.5 -7t0.5 -9q0 -2 -0.5 -7.5t-0.5 -7.5q-12 -14 -26.5 -23t-28.5 -20
q-21 -16 -37.5 -38.5t-28 -48t-18 -53t-6.5 -53.5zM104 171q0 4 -0.5 17t-0.5 17q0 47 18.5 79t56.5 56q6 3 8 3.5t9 0.5q5 0 9 -1t6 -7q1 -3 5 -11l8.5 -17t8 -16.5t5.5 -10.5q4 -8 16.5 -24.5t25.5 -35t23 -34.5t9 -23q0 -2 -2.5 -8t-4.5 -8q-18 -21 -38.5 -36t-49.5 -15
q-44 0 -72 16t-40 58zM213 578q0 11 2 22.5t7 20.5t14 15t23 6q12 0 20.5 -6t14 -15t8 -20t2.5 -21q0 -12 -4.5 -30t-13 -34.5t-20.5 -28t-27 -11.5q-1 0 -4.5 0.5t-5.5 0.5q-11 22 -13.5 49.5t-2.5 51.5z" />
    <glyph glyph-name=".0039" unicode="'" horiz-adv-x="500" 
d="M151 451v-1q-2 0 -2 -4q-1 -1 -1 -3v-1q0 -3 1 -4q2 -7 8 -12.5t12 -6.5q3 -1 5 -1q3 0 9 2q5 3 10 7t8 9q12 13 25 37q6 10 11.5 21.5t10.5 23.5q13 31 17 55q2 8 2 15v15q0 37 -16 60.5t-35 32.5q-12 5 -22 5q-6 0 -15 -1.5t-18 -5.5q-17 -7 -30.5 -21t-13.5 -38
q0 -3 1 -7l2 -8v-1t1 -1q0 -3 1 -5t1 -4q4 -16 13 -24t19 -11q3 0 5.5 -0.5t4.5 -0.5q5 0 8 1h5q3 0 6.5 1.5t4.5 -0.5q4 -14 7.5 -16t6 0t4 4t1.5 -4q0 -11 -8 -29.5t-21 -39.5q-6 -10 -13.5 -20.5t-14.5 -18.5z" />
    <glyph glyph-name="parenleft" unicode="(" horiz-adv-x="248" 
d="M10 312l51 -203q0 -1 6 -13t14 -28.5t16.5 -33t13.5 -26.5q6 -11 14 -24t18 -24t22 -18.5t26 -7.5q21 0 33.5 15.5t12.5 34.5q0 12 -5.5 23.5t-13 22t-15.5 20.5t-14 20q-12 22 -24 46.5t-22 47.5q-14 45 -22 80t-17 76v160q0 1 1.5 10t4 20.5t5 22.5t4.5 17q3 8 9.5 29
t14 45t14 45t9.5 29q12 29 30.5 56.5t31.5 56.5q0 2 0.5 7t0.5 7q0 18 -9 29.5t-28 11.5q-16 0 -32.5 -14.5t-32.5 -37.5t-30.5 -50.5t-26 -54t-20.5 -48.5t-13 -33q-7 -18 -10 -38t-5 -40t-4 -39.5t-8 -38.5v-160z" />
    <glyph glyph-name="parenright" unicode=")" horiz-adv-x="241" 
d="M14 -9q0 -17 10 -35t29 -18q13 0 25 8.5t22.5 20.5t18.5 25.5t12 23.5q3 7 11 26t16.5 40t16.5 40t11 27q2 3 4.5 12.5t3.5 11.5q11 43 18 82.5t17 81.5v137q-9 35 -12.5 66.5t-14.5 66.5q-3 9 -10.5 30t-16.5 45t-17 45t-11 29q-7 12 -16.5 32t-20.5 39t-24.5 32.5
t-28.5 13.5q-17 0 -32 -11.5t-15 -30.5q0 -11 10 -28.5t23.5 -37t26.5 -39t18 -33.5q27 -69 41 -143t14 -149q0 -87 -26 -171t-68 -159q-14 -15 -24.5 -37.5t-10.5 -42.5z" />
    <glyph glyph-name=".0044" unicode="," horiz-adv-x="197" 
d="M29 -133q0 -20 14 -25.5t31 -5.5q28 0 49.5 22.5t35 54t20.5 65t7 54.5q0 8 -2.5 25t-7 35.5t-11.5 34t-15 20.5q-5 3 -13 7t-15.5 7.5t-13 6.5l-5.5 3h-27l-6 -3t-13.5 -6.5t-15 -7.5t-12.5 -7t-9 -10t-6 -15.5t-3 -17t-1 -13.5q0 -27 11.5 -42t25.5 -24t25.5 -15.5
t11.5 -17.5q0 -18 -8.5 -33t-19 -29.5t-19 -29.5t-8.5 -33z" />
    <glyph glyph-name=".0046" unicode="." horiz-adv-x="170" 
d="M10 76q0 -33 18.5 -54.5t53.5 -21.5q37 0 56.5 24.5t19.5 59.5t-18 57.5t-55 22.5h-13q-35 -11 -48.5 -32t-13.5 -56z" />
    <glyph glyph-name="slash" unicode="/" horiz-adv-x="574" 
d="M464 881q-16 -41 -36.5 -82t-43 -81t-45 -79.5t-43.5 -78.5q-41 -77 -76.5 -157.5t-80.5 -155.5q-11 -20 -19 -41.5t-20 -40.5q-17 -28 -35 -56t-32 -58q-3 -8 -9 -21.5t-9.5 -23t-4.5 -10.5v-27q0 -6 6.5 -8.5t14.5 -3t15 -0.5h9q16 0 28.5 2.5t20.5 17.5q25 46 46 94
t48 94q7 11 11 23.5t12 23.5l110 215l8 12l102 199q1 2 4 6t4 6q2 4 10 19.5t17 33.5t17 33.5t10 19.5q1 1 5 7.5t9 13.5t9 13.5t5 8.5q2 3 6.5 12l9.5 19t9 19t6 12v8q0 11 -7 17.5t-17.5 9.5t-21.5 4t-19 1q-21 0 -33 -20z" />
    <glyph glyph-name="zero" unicode="0" horiz-adv-x="527" 
d="M10 350q0 -38 12.5 -89t35.5 -100.5t55.5 -89.5t72.5 -56q20 -8 44.5 -10t45.5 -2q20 0 48.5 2t45.5 14q82 76 113.5 170t31.5 204q0 54 -16.5 113t-48.5 108.5t-79 81.5t-108 32q-31 0 -58.5 -11t-51 -29t-43 -41.5t-33.5 -48.5q-12 -20 -25.5 -39.5t-18.5 -42.5
q-7 -38 -15 -82t-8 -84zM104 363q0 60 14.5 111.5t52.5 100.5q11 14 19.5 22.5t18 13t21.5 6t30 1.5q21 0 36 -0.5t35 -7.5l7 -7l10.5 -10.5l10.5 -10.5l7 -7q3 -4 9 -11t7 -9l39 -82q4 -8 5.5 -20t2.5 -24.5t1 -24.5v-19v-10t-0.5 -15t-0.5 -15v-9q-3 -9 -3.5 -16t-1 -13.5
t-1 -14.5t-2.5 -19q-8 -46 -31.5 -86t-58.5 -70q-3 -3 -10.5 -7.5t-9.5 -4.5h-97q-14 11 -26.5 20t-24.5 23q-1 0 -2 3t-2 5q-6 13 -14.5 25t-13.5 26q-13 37 -20 77t-7 79z" />
    <glyph glyph-name="one" unicode="1" horiz-adv-x="495" 
d="M26 16q3 -1 9.5 -2.5t14 -3.5t14 -3.5t9.5 -1.5q1 0 8 -0.5t15 -1.5t14.5 -1.5t8.5 -0.5q11 -2 16.5 -7t17.5 -5q9 0 17.5 4t15.5 10h117q12 7 27.5 6.5t27.5 -0.5q17 0 31 -2t30 -2q10 0 21 3t21 8.5t16.5 14t6.5 19.5q0 8 -4 17.5t-10.5 17.5t-15 13.5t-18.5 5.5h-133
l-1.5 2t-2.5 4l-4 8v285q5 11 5 22v23q0 20 -2.5 38.5t-2.5 38.5t2.5 38t2.5 38q0 15 -2 31t-7.5 31t-16 26t-26.5 15q-9 0 -31 1t-46.5 1.5t-47 1t-31.5 0.5h-2q-32 0 -52.5 -9t-20.5 -44q0 -15 11.5 -28.5t28.5 -13.5h145l3 -6l1 -14t1.5 -32.5t1 -38.5t0.5 -33
q0 -1 0.5 -7.5t0.5 -10.5q0 -81 -3 -159.5t-2 -162.5q-1 -3 -1.5 -11.5t-2 -17t-3 -15t-4.5 -7.5h-22q-21 0 -40.5 2.5t-41.5 2.5q-5 0 -20.5 -0.5t-20.5 -0.5q-11 1 -19 -5t-12.5 -15t-6.5 -19t-2 -19t2 -16t15 -12z" />
    <glyph glyph-name="two" unicode="2" horiz-adv-x="503" 
d="M145 64q11 0 21.5 -4t19.5 -8q3 -2 13 -7l22 -11t22 -11.5t13 -6.5q1 0 6 -1.5t10 -2.5l10 -2t6 -1q15 -5 25 -12.5t28 -7.5q17 0 27 7t25 13q53 19 75.5 51t22.5 87v23q0 13 -3 24t-10 18.5t-22 7.5q-22 0 -30 -13.5t-11.5 -32t-7.5 -38t-18 -30.5q-21 -5 -32.5 -6.5
t-30.5 -1.5q-25 0 -45.5 9.5t-40 20.5t-40.5 20.5t-46 9.5q-11 0 -19 -1t-19 -4q-5 1 -5 6v7t0.5 4.5l0.5 2.5l54 59l5.5 2.5t13 6.5t15.5 8t13 6q22 11 43 15t43 12q43 15 76.5 35.5t56 49t34 66t11.5 86.5q0 5 -0.5 20.5t-1.5 20.5q-6 42 -28.5 73.5t-54.5 53t-70.5 32
t-77.5 10.5q-30 0 -59.5 -8t-55.5 -23.5t-46.5 -37.5t-33.5 -49q-8 -17 -16 -36.5t-8 -39.5q0 -15 5 -32.5t14 -32.5t22.5 -25t31.5 -10q37 0 55 27.5t18 60.5q0 12 -4 21t-8.5 16.5t-8 13.5t-3.5 11q0 9 4.5 15t11.5 11q13 6 23.5 9t20.5 4.5t20 2t23 0.5q34 0 67.5 -6.5
t52.5 -36.5q5 -8 12 -21.5t7 -14.5v-86l-1 -3t-3 -5q-14 -20 -33 -40t-45 -26q-2 0 -8 -0.5t-13.5 -1.5t-14 -1.5t-7.5 -0.5q-2 0 -8 -1.5t-7 -2.5q-2 -1 -10 -7.5t-10 -8.5q-21 -14 -45 -22t-45 -24q-62 -47 -95.5 -114t-33.5 -145q0 -24 10 -37.5t36 -13.5q15 0 25 8.5
t19 19t19.5 19.5t25.5 9z" />
    <glyph glyph-name="three" unicode="3" horiz-adv-x="495" 
d="M10 159q0 -23 11 -46t28 -42.5t39 -34t43 -20.5q1 0 6.5 -1.5t11.5 -2.5t11 -2t6 -1q14 -4 25.5 -11.5t25.5 -8.5h37h38q11 3 19.5 9.5t19.5 10.5q30 9 51 22t37 31t28 41.5t24 53.5q1 3 3.5 10t4 14.5t3 14t1.5 8.5v98q0 29 -18.5 61t-40.5 52q-3 3 -8 7.5l-10 9t-9 8
l-4 3.5l-70 27q-6 2 -7 5t-1 8q0 14 10 23.5t17 18.5q9 12 25 29t31 36.5t26.5 39t11.5 35.5q0 20 -10.5 33.5t-32.5 13.5h-176q-19 -3 -32.5 -3.5t-32.5 -0.5q-14 0 -25.5 2t-24.5 2q-15 0 -24.5 -6t-15.5 -15.5t-10 -21t-7 -23.5q-1 -5 -4 -16t-6 -23.5t-5.5 -23.5
t-3.5 -15q0 -1 -0.5 -3t-0.5 -3q0 -20 12.5 -34.5t33.5 -14.5q23 0 32.5 15.5t12.5 33.5t5 33.5t10 15.5h162q0 -11 -2 -16.5t-5.5 -10t-8 -9t-9.5 -11.5q-1 -2 -4.5 -7.5t-7.5 -12.5t-7 -12.5t-4 -6.5q-10 -14 -25 -28t-28.5 -29t-23.5 -31t-10 -34q0 -23 11.5 -31t33.5 -8
q18 0 30.5 4t26.5 16h59q35 -29 57 -60t22 -81q0 -42 -14 -76.5t-49 -60.5q-11 -8 -25.5 -11t-25.5 -12h-75q-7 6 -18.5 9.5t-22 8.5t-18 12t-7.5 19q0 13 6 25t6 26q0 13 -3.5 27t-11 26t-19 19.5t-27.5 7.5q-23 0 -39 -8.5t-26 -23t-14.5 -33t-4.5 -39.5z" />
    <glyph glyph-name="four" unicode="4" horiz-adv-x="527" 
d="M182 48q0 -15 11.5 -26t27.5 -11h231q18 0 29 12t11 29q0 21 -7.5 32t-20 15.5t-28.5 5t-34 0.5q-5 2 -12.5 8t-7.5 12v50q0 3 4 5t9 3.5t9.5 2.5l4.5 1q4 0 15 1t23 1.5t22.5 1t14.5 0.5q31 8 31 38q0 7 -3 16t-8 17t-12 13.5t-16 5.5h-88v364q0 1 -1.5 8t-4 16t-5 17.5
t-3.5 13.5q-5 17 -20 26.5t-33 9.5t-29.5 -9t-20 -22.5t-15.5 -28.5t-15 -27q-44 -61 -78 -126.5t-71 -131.5l-42 -76t-40 -77v-10q0 -17 15 -31t32 -14h176q11 4 19.5 4.5t18.5 0.5q3 0 8 -0.5l5 -0.5l8 -8v-58l-8 -8q-20 -2 -40 -6.5t-38 -9.5q-14 -8 -19 -21.5t-5 -27.5z
M139 287q0 11 10.5 35.5t26 55.5t35 64t37.5 60t32.5 44.5t20.5 17.5q0 -38 -3 -72.5t-3 -71.5q0 -20 2.5 -39t2.5 -39q0 -5 0.5 -13t-0.5 -16.5t-3.5 -16t-8.5 -11.5q-29 -1 -57 -4.5t-57 -3.5h-31q-4 1 -4 4v6z" />
    <glyph glyph-name="five" unicode="5" horiz-adv-x="468" 
d="M10 163q0 -21 10.5 -43.5t26.5 -43.5t35.5 -37t37.5 -23q13 -5 27 -5.5t27 -5.5q12 -5 22 -10.5t23 -5.5q17 0 33 7.5t32 12.5q1 0 6 1t11 2t11.5 2.5t6.5 1.5q3 1 8.5 4t12 6t11.5 6t7 4q24 17 42.5 45t31 60t19 64.5t6.5 58.5q0 49 -18 92.5t-38 86.5q-28 29 -58 55
q-5 1 -16 4.5t-23.5 6.5t-24 5.5t-15.5 2.5q-1 1 -14 1h-19q-25 0 -46.5 -8.5t-45.5 -8.5q-8 0 -12 12t-4 18v2q1 2 2.5 11.5t1.5 11.5q0 3 1 10.5t1.5 15.5t1 15t0.5 10q5 8 17 10t19 2h121q12 -5 26.5 -4.5t26.5 0.5t25 0.5t23.5 4.5t17 12.5t6.5 24.5q0 38 -24 51t-56 13
q-15 0 -29.5 -2t-29.5 -2q-29 0 -56.5 4t-56.5 4q-14 0 -28.5 -0.5t-28.5 -3.5t-26 -9.5t-21 -18.5q-11 -32 -15.5 -66.5t-4.5 -68.5q0 -20 2.5 -39t2.5 -39q0 -30 -4.5 -59t-4.5 -60q0 -15 11.5 -29t28.5 -14q12 0 19 5t12 13t9 16.5t10 16.5q13 17 29.5 28t33.5 22
q4 4 8 4h82q6 0 15.5 -7.5t19 -17.5t17.5 -20.5t11 -16.5q3 -5 6.5 -13.5t7.5 -17t6.5 -14.5l2.5 -6v-106q0 -13 -7 -27t-17.5 -26.5t-22 -23.5t-19.5 -17q-10 -8 -24.5 -7.5t-26.5 -3.5q-10 -4 -17.5 -10.5t-17.5 -6.5q-6 0 -19.5 4t-27 11t-23.5 15.5t-9 17.5q2 14 7 24.5
t5 24.5q0 31 -14.5 51.5t-45.5 20.5q-36 0 -54.5 -26.5t-18.5 -61.5z" />
    <glyph glyph-name="six" unicode="6" horiz-adv-x="484" 
d="M10 296v-23q0 -1 1 -6t2.5 -11t3 -11.5t1.5 -6.5q9 -50 25 -92t42 -72t65.5 -47t95.5 -17q55 0 93.5 17t64.5 47.5t42 73.5t26 94v14q0 19 -7.5 46t-20 54.5t-28.5 51t-34 34.5q-13 8 -27 13.5t-28 10t-28 10t-27 13.5h-54q-8 0 -18.5 -8.5t-17.5 -11.5q-5 -2 -13.5 -5.5
t-17 -6.5t-14.5 -5l-6 -2h-10q0 24 14.5 53t36.5 55.5t48 47t48 28.5h6q5 0 8.5 -1.5t5.5 -6.5q8 -32 22 -53.5t50 -21.5q32 0 51 18.5t19 50.5q0 30 -10.5 51.5t-28.5 36t-42 21.5t-51 7q-22 0 -36.5 -3t-26.5 -8.5t-25 -12.5t-32 -16l-14 -14t-21.5 -22t-21 -23t-13.5 -15
q-1 -1 -4.5 -6.5t-7.5 -11.5t-7.5 -11t-4.5 -6q-2 -2 -7.5 -10t-7.5 -10q-38 -63 -48.5 -131.5t-10.5 -139.5zM108 265q0 38 12.5 65.5t46.5 48.5q4 3 13 7.5t10 4.5h90q13 0 30 -11.5t32 -28t25.5 -35t10.5 -31.5v-90l-4 -8q-23 -38 -54 -60.5t-77 -22.5q-3 0 -14.5 0.5
t-14.5 0.5q-2 0 -4.5 1.5t-3.5 2.5q-27 17 -45.5 31.5t-30 32t-17 39t-5.5 53.5z" />
    <glyph glyph-name="seven" unicode="7" horiz-adv-x="448" 
d="M166 75v-28t8 -27q9 -11 17 -19t22 -8q20 0 34 16.5t17 34.5q0 6 0.5 21.5t1 33t1.5 33t1 21.5q2 27 10.5 52t20.5 48t25.5 46t25.5 46q18 34 32 65.5t24.5 63.5t17.5 65.5t12 71.5l0.5 7.5t0.5 12.5q0 10 -1 24t-5.5 27t-13 22t-22.5 9q-17 0 -24.5 -12t-12.5 -26
t-12 -26t-23 -12t-32 14t-34.5 31.5t-39 31.5t-45.5 14q-8 0 -15.5 -3t-15 -7t-15 -7t-16.5 -3q-15 0 -25 8t-26 8q-28 0 -38.5 -21t-10.5 -44q0 -11 0.5 -18.5t5.5 -18.5v-168q0 -18 15 -32.5t32 -14.5q13 0 21.5 7t14 18t7.5 23.5t2 24.5q0 15 -2.5 30t-2.5 31
q0 15 5.5 30t15.5 26.5t24 18.5t30 7q8 0 14 -1t13 -7l59 -55q3 -3 12 -5.5t12 -2.5t9.5 -1t13.5 -1.5t13.5 -1t9.5 -0.5q4 -1 4.5 -4t0.5 -5q0 -17 -9.5 -40t-23.5 -46t-29 -44.5t-25 -36.5q-5 -8 -7.5 -17.5t-7.5 -17.5q-5 -7 -11 -13t-9 -14q-20 -57 -35.5 -116
t-15.5 -119z" />
    <glyph glyph-name="eight" unicode="8" horiz-adv-x="531" 
d="M10 223v-12q9 -55 33 -93t59 -62t79.5 -35t96.5 -11h10t15 0.5t14 0.5h10q30 6 57 19.5t53 27.5q39 35 60.5 80t21.5 98q0 34 -8 66.5t-27 60.5q-5 7 -14.5 13t-19.5 12t-17.5 12.5t-7.5 15.5v6q12 7 23 22t20 33t14.5 36t5.5 33q0 24 -7.5 50t-21.5 50t-33.5 43
t-43.5 27q-26 9 -51 18.5t-53 9.5q-32 0 -64.5 -7t-61.5 -21.5t-52 -37.5t-35 -56q-2 -5 -5 -16t-6 -23t-5.5 -23.5t-3.5 -15.5v-17q0 -21 5.5 -37.5t18.5 -35.5q3 -5 9.5 -10l13 -10t11.5 -11t5 -13t-6.5 -13t-15 -12t-17 -11.5t-12.5 -10.5q-23 -30 -35 -66t-12 -74z
M100 203q0 2 -0.5 10.5t-0.5 10.5q0 27 6.5 46.5t19.5 34t31.5 25.5t41.5 22q4 2 13 5t10 3h91q4 0 22.5 -8t38.5 -20t36 -26t16 -25v-82l-4 -8q-8 -14 -19.5 -28t-25 -25t-30 -18t-34.5 -7h-91q-20 0 -39 7.5t-34.5 20t-28 28.5t-19.5 34zM139 546q0 25 11.5 44.5t30 33
t41.5 20t46 6.5q22 0 44.5 -5.5t40.5 -17t29.5 -30t11.5 -43.5q0 -41 -22 -67.5t-60 -36.5q-5 -1 -19 -1h-19q-24 0 -48 4t-43.5 15t-31.5 29.5t-12 48.5z" />
    <glyph glyph-name="nine" unicode="9" horiz-adv-x="480" 
d="M57 115q0 -14 3 -32t13 -29q5 -5 11 -12.5t13.5 -14.5t16 -11.5t17.5 -4.5h106q22 0 48.5 18.5t52 44.5t46 53t29.5 45q3 6 9 17.5t11.5 22.5t10 19.5t5.5 10.5q11 27 11 54q0 28 8 56v129q0 1 -2.5 11t-5.5 23.5t-6 28t-5 23.5q-9 33 -30 62.5t-50.5 51.5t-63.5 34.5
t-68 12.5q-52 0 -96.5 -22.5t-75.5 -64.5q-3 -3 -10.5 -11.5t-9.5 -15.5l-35 -118l-0.5 -5t-0.5 -7q0 -42 17.5 -84.5t47.5 -76.5t69.5 -55.5t84.5 -21.5q23 0 45 5.5t42 13.5q14 5 24.5 14t25.5 9q0 -21 -16.5 -52.5t-40 -61t-49.5 -50t-45 -20.5q-14 0 -19 13t-10.5 28.5
t-17.5 28.5t-41 13q-34 0 -51.5 -19t-17.5 -53zM96 506q0 23 7 35.5t21 29.5q14 18 24 29t22 17t27.5 8t41.5 2q5 0 19 -0.5t18 -0.5q52 -22 75.5 -61t23.5 -94q0 -22 -3 -38.5t-10.5 -30.5t-20 -26t-30.5 -24q-4 -3 -14.5 -7.5t-12.5 -4.5h-74q-18 0 -33 13t-26 22
q-19 15 -30 28.5t-16.5 28t-7 32.5t-1.5 42z" />
    <glyph glyph-name=".0058" unicode=":" horiz-adv-x="170" 
d="M10 73q0 -33 18.5 -54.5t53.5 -21.5q37 0 56.5 24.5t19.5 59.5t-18 57.5t-55 22.5h-13q-35 -11 -48.5 -32t-13.5 -56zM10 447q0 -33 18.5 -54.5t53.5 -21.5q37 0 56.5 24.5t19.5 59.5t-18 57.5t-55 22.5h-13q-35 -11 -48.5 -32t-13.5 -56z" />
    <glyph glyph-name=".0059" unicode=";" horiz-adv-x="197" 
d="M29 -141q0 -20 14 -25.5t31 -5.5q28 0 49.5 22.5t35 54t20.5 65t7 54.5q0 8 -2.5 25t-7 35.5t-11.5 34t-15 20.5q-5 3 -13 7t-15.5 7.5t-13 6.5l-5.5 3h-27l-6 -3t-13.5 -6.5t-15 -7.5t-12.5 -7t-9 -10t-6 -15.5t-3 -17t-1 -13.5q0 -27 11.5 -42t25.5 -24t25.5 -15.5
t11.5 -17.5q0 -18 -8.5 -33t-19 -29.5t-19 -29.5t-8.5 -33zM17 421q0 -33 19 -54.5t54 -21.5q37 0 56.5 25t19.5 59q0 35 -18.5 58t-54.5 23q-3 0 -7.5 -0.5t-5.5 -0.5q-35 -11 -49 -32t-14 -56z" />
    <glyph glyph-name="question" unicode="?" horiz-adv-x="417" 
d="M138 104q0 -14 5 -30t14 -30t22 -23.5t29 -9.5t29.5 7.5t23 19.5t14.5 27t5 30q0 31 -18 54t-51 23q-29 0 -51 -19t-22 -49zM158 294q0 -11 2 -22.5t7.5 -22t14 -17t21.5 -6.5q16 0 24.5 9.5t12.5 23.5t4.5 29.5t0.5 27.5q3 6 16 14.5t29 17.5t32 17t24 14q16 10 27.5 29
t18.5 40.5t10.5 44t3.5 40.5q0 5 -0.5 15t-0.5 11t-2.5 9.5t-5.5 20t-6 22.5t-5 18q-1 2 -2.5 4.5t-1.5 3.5l-63 74q-5 6 -21.5 11t-37 8.5t-39.5 6t-29 2.5q-39 0 -72.5 -14.5t-58 -39t-38 -58.5t-13.5 -73q0 -20 4 -37.5t13 -30.5t23.5 -21t35.5 -8q29 0 49 16t20 48
q0 15 -7 26.5t-15 21.5t-15 19.5t-7 21.5v6q0 3 5 5q22 12 42 20t46 8q55 0 89 -36t34 -91q0 -20 -9 -43.5t-30 -33.5l-86 -39q-15 -7 -24 -19.5t-13.5 -28.5t-5.5 -32.5t-1 -31.5z" />
    <glyph glyph-name="A" unicode="A" horiz-adv-x="609" 
d="M9 54q0 2 0.5 8.5t0.5 8.5q10 12 18 18t17 9.5t19 6.5t24 9q7 3 12.5 11t9 17t6 18.5t4.5 16.5q3 10 9.5 35t14 53t14 53t9.5 35q9 22 12 43t11 43q16 48 32.5 96t30.5 96q3 10 6.5 25t9.5 28.5t16 23t26 9.5q18 0 29 -12t17.5 -28.5t10 -34t6.5 -27.5q10 -34 16 -69.5
t23 -67.5l94 -356q3 -10 11.5 -16t19.5 -9.5t21.5 -5.5t18.5 -4q19 -12 19 -37q0 -24 -15 -36.5t-38 -12.5q-25 0 -52 1.5t-51 2.5q-16 0 -30 1t-25 5.5t-17.5 14.5t-6.5 28v17q7 9 16.5 13.5t19 8.5t17 8.5t10.5 12.5q0 2 -1 8.5t-2.5 13.5t-2.5 13t-2 8q-1 3 -3 11t-6 17
t-8.5 16t-9.5 7h-157q-2 0 -10 -6.5t-9 -8.5l-28 -59q0 -1 -0.5 -6t-0.5 -7q0 -17 9.5 -23t20.5 -11t20.5 -13.5t9.5 -29.5q0 -23 -15.5 -33t-37.5 -10q-14 0 -27.5 2t-28.5 2q-20 0 -39 -3.5t-39 -3.5q-23 0 -36 17.5t-13 38.5zM241 298q11 -7 21 -7.5t24 -0.5q20 0 39.5 3
t40.5 5l4 4q0 1 0.5 5.5t0.5 6.5q0 8 -4 27.5t-10.5 43t-14.5 48.5t-15 45.5t-12 34t-6 13.5q-4 0 -6 -5t-3 -7q-3 -8 -8.5 -23.5t-11.5 -31t-10.5 -28t-5.5 -15.5q-8 -26 -16 -53t-8 -53q0 -2 0.5 -6t0.5 -6z" />
    <glyph glyph-name="B" unicode="B" horiz-adv-x="590" 
d="M10 52q0 -22 14 -37.5t37 -15.5h12q19 0 64.5 0.5t99.5 0.5t99.5 0.5t65.5 0.5q28 5 52.5 17t49.5 26q18 16 32 38t23.5 47t14.5 50.5t5 48.5q0 32 -8 56.5t-24 53.5q-4 6 -11 12t-14 13t-12.5 13.5t-5.5 12.5q0 11 11 26t16 21q12 18 18 42t6 46q0 45 -13.5 78.5
t-38.5 56.5t-60.5 37.5t-79.5 21.5h-20q-42 0 -83 -6t-83 -6h-61q-18 5 -30 6.5t-28 1.5q-22 0 -35 -13.5t-13 -35.5q0 -28 19.5 -40.5t45.5 -12.5q12 0 23.5 2t23.5 2h7q8 0 17 -3t9 -9v-505l-4 -4q-1 0 -7.5 -0.5t-9.5 -0.5q-18 0 -35 2.5t-34 2.5h-24q-31 -13 -31 -47z
M260 338q7 0 12.5 -2t12.5 -2t11 1t12 7h113q2 0 9.5 -4.5t10.5 -7.5l47 -47q9 -10 8.5 -27t-0.5 -30q0 -26 -3.5 -46t-13.5 -35.5t-26.5 -27.5t-42.5 -22q-35 -1 -68.5 -4.5t-67.5 -3.5q-6 0 -17.5 3.5t-11.5 12.5v223q0 2 4.5 6t7.5 6h3zM245 616h125q20 -5 32.5 -6.5
t22.5 -5t18.5 -12t20.5 -27.5q4 -4 4 -8v-66q0 -10 -5.5 -19t-13.5 -16.5t-16.5 -13.5t-15.5 -10q-27 -2 -62 -3t-67 -1h-12q-10 0 -20.5 2.5t-10.5 13.5v172z" />
    <glyph glyph-name="C" unicode="C" horiz-adv-x="488" 
d="M73 99q32 -54 87 -78t115 -24q40 0 76 22t64 55.5t44.5 74t16.5 77.5q0 10 -0.5 21t-4.5 20t-11.5 14.5t-20.5 5.5q-21 0 -33 -20q-10 -28 -21.5 -58.5t-28.5 -56t-42 -42t-61 -16.5q-4 0 -11.5 0.5t-8.5 0.5q-33 8 -55.5 27.5t-36.5 45t-21.5 55.5t-11.5 60q-1 2 -2 10
t-2 10v125q0 27 7 54.5t20 53t31 47.5t40 37q2 1 4.5 2.5t3.5 1.5h66q1 0 5.5 -1.5t6.5 -2.5q21 -10 35 -20t23.5 -22.5t15.5 -28.5t12 -39q3 -9 4.5 -25.5t6 -32.5t13.5 -28t25 -12q9 0 17.5 7t14.5 17t9.5 20.5t3.5 18.5v121q0 3 -1.5 12t-2.5 12v2q0 11 2.5 21.5
t2.5 21.5q0 10 -1.5 20.5t-6 19.5t-12.5 15t-20 6t-20 -7t-13.5 -15t-10.5 -15t-11 -7h-4q-35 20 -64 32t-67 12q-10 0 -22 0.5t-23 -4.5l-13 -6.5t-18.5 -9.5t-18.5 -9.5l-13 -6.5q-7 -6 -18 -18.5t-22 -26.5t-19.5 -27.5t-10.5 -21.5l-43 -141q-1 -12 -3 -27t-5 -28v-105
q7 -26 8 -51t12 -51q2 -6 8 -19t12.5 -28t13 -28.5t9.5 -18.5z" />
    <glyph glyph-name="D" unicode="D" horiz-adv-x="605" 
d="M10 68q0 -19 8.5 -32t22 -21t30 -11.5t32.5 -3.5h17q2 0 10.5 2t18 4t18.5 4t11 2q3 0 13 0.5t22.5 1t25 1.5t18.5 1q39 1 69.5 1.5t58 6t54 18t56.5 36.5q4 3 14.5 13.5t13.5 14.5q39 73 55 151t16 161q0 34 -8.5 75t-25.5 79.5t-43 70t-61 46.5q-29 12 -58.5 17.5
t-58.5 17.5h-137q-13 -5 -29 -4.5t-28 0.5q-20 0 -37.5 2t-36.5 2q-27 0 -44 -12t-17 -41q0 -21 14 -37t37 -16h82q4 0 8 -4q4 0 4 -4l-2 -168v-19v-176v-20l2 -110l-8 -7q0 -1 -6 -1h-10q-17 0 -32 2.5t-32 2.5q-25 0 -41 -8.5t-16 -37.5zM245 125l2 313l1 20v156l5 8
l7 0.5t11 0.5q64 0 108.5 -11.5t73 -37.5t41.5 -69.5t13 -107.5q0 -32 -2.5 -73t-13 -80.5t-31 -72t-55.5 -46.5q-28 -11 -60.5 -13.5t-62.5 -2.5q-3 0 -9 1t-12 3t-11 5t-5 7z" />
    <glyph glyph-name="E" unicode="E" 
d="M17 45q0 -17 6 -26t16.5 -13.5t23.5 -5t27 -0.5q12 0 28 -0.5t29 4.5h333q11 -4 20 -4h21q36 0 58 20t22 57q0 11 -0.5 18.5t-5.5 18.5v137q0 19 -13 38.5t-34 19.5q-17 0 -29 -13t-12 -30v-98q0 -3 -3 -9.5t-5 -9.5q-13 -24 -27 -31.5t-30.5 -8.5t-36 -0.5t-43.5 -6.5
h-101l-8 8v219l1 3t3 5q0 4 4 4h43q6 0 14.5 -7.5t17 -17t14.5 -19.5t8 -15v-31t4 -36.5t14 -30t30 -12.5q31 0 31 32v328q0 17 -10 28.5t-26 11.5q-20 0 -27 -13t-9 -31t-3 -36.5t-8 -29.5q-8 -13 -21.5 -18t-24.5 -13h-51l-4 4l-1 5t-2.5 11.5t-2.5 14t-2 12.5v1v2
q0 2 2 12t2 12q0 6 0.5 22t1.5 34t1.5 34.5t0.5 22.5l4 4h191q8 0 19.5 -10.5t16.5 -16.5q4 -6 10.5 -18t6.5 -13v-106q0 -16 13.5 -26t27.5 -10q17 0 30 11t13 29v211q0 15 -10 32t-25 19q-122 -1 -243 1.5t-243 2.5q-26 0 -40 -16.5t-14 -40.5q0 -29 17 -41t44 -12
q17 0 32.5 2.5t32.5 2.5h11t8 -1l8 -7v-25q0 -12 0.5 -28.5t-4.5 -29.5l2 -137v-19l2 -235q0 -6 -3 -16.5t-9 -14.5q-5 0 -13 -1.5t-17 -3t-17.5 -2.5t-13.5 -1h-2q-2 0 -11.5 1.5t-11.5 2.5h-6q-13 0 -21 -5.5t-12.5 -14.5t-6.5 -20t-2 -21z" />
    <glyph glyph-name="F" unicode="F" horiz-adv-x="594" 
d="M10 57q0 -7 2.5 -15.5t7 -16t11 -13t14.5 -5.5h243q2 1 10 2.5t10 1.5q4 0 14.5 1t22.5 1.5t22.5 1t14.5 0.5q32 8 32 43q0 13 -7.5 22t-18.5 14.5t-24 8t-23 2.5q-13 0 -25.5 -2t-25.5 -2q-9 0 -18.5 1.5t-14.5 10.5q-1 36 -4.5 69.5t-3.5 69.5v45q2 13 12 20h21
q26 0 41 -9t24 -35q0 -5 0.5 -16.5t1 -24.5t1.5 -25t1 -16q2 -17 12.5 -30t28.5 -13q16 0 24.5 8t12.5 20t4.5 25.5t0.5 24.5v26t-7 25v232q0 15 -13.5 25t-27.5 10q-17 0 -25 -11t-11 -26t-3 -31v-26l-5 -12.5t-8 -14.5t-10.5 -11.5t-11.5 -4.5h-51q-3 0 -5.5 5.5t-4 12.5
t-2 14.5t-0.5 11.5q0 14 2 26t2 26q0 22 -2.5 42.5t-2.5 43.5q0 5 0.5 16.5t0.5 12.5l4 4q35 1 67 4.5t66 3.5q31 0 54.5 -5t43.5 -30q3 -4 8.5 -13t5.5 -11v-145q0 -10 14 -20.5t25 -10.5q9 0 17.5 6.5t14.5 16.5t9.5 20.5t3.5 19.5v215q0 19 -16 35t-35 16l-239 -2h-19
l-114 -2q-22 7 -44.5 7.5t-45.5 0.5q-25 0 -40.5 -19.5t-15.5 -42.5t13.5 -35.5t36.5 -12.5q17 0 32.5 2.5t33.5 2.5q5 0 15 -0.5t11 -0.5l4 -4l8 -39v-302q-2 -8 -3 -13t-1 -12q0 -8 1 -12.5l3 -13.5v-121l-4 -4q-1 0 -8.5 -0.5t-12.5 -0.5q-18 0 -35.5 2.5t-35.5 2.5
q-25 0 -43 -10t-18 -38z" />
    <glyph glyph-name="G" unicode="G" horiz-adv-x="566" 
d="M10 294q7 -27 9.5 -55t10.5 -55q8 -34 27.5 -67t46.5 -59t60.5 -42t70.5 -16q12 0 21 -0.5t20 4.5q9 3 18 9.5t19 13t19.5 11.5t18.5 5q6 0 10 -6l9 -13.5t12.5 -13.5t20.5 -6q23 0 36 19t13 41q0 12 -2 23.5t-2 24.5v20q0 10 4 21v113q0 2 1.5 10t6.5 10q13 0 29.5 1
t31 5.5t24 15t9.5 29.5q0 14 -5.5 22.5t-14.5 13t-20.5 6t-23.5 1.5q-14 0 -27.5 -2t-27.5 -2q-32 0 -64 6t-64 6q-19 0 -29 -16t-10 -33t8 -26.5t20.5 -15t27 -8t27.5 -3.5l7 -8q1 -1 1 -10v-12q0 -27 -8.5 -55t-24.5 -50t-39 -36t-52 -14t-53 19t-41 46.5t-27 58t-10 53.5
v192q4 9 6 14.5t3 10.5t2 12t5 18q14 44 40.5 75t74.5 31q41 0 64.5 -13.5t36 -34.5t17.5 -44.5t10 -44.5t13.5 -34.5t28.5 -13.5q22 0 32 18.5t14 43t5 48.5t4 35v110q0 16 -9 24t-24 8q-18 0 -27 -8t-14.5 -18t-9.5 -18t-12 -8q-13 0 -22 10.5t-19 16.5q-19 13 -44 22.5
t-48 9.5q-39 0 -74 -23.5t-62.5 -58t-45.5 -75t-23 -74.5q-5 -27 -7 -55t-9 -55v-105z" />
    <glyph glyph-name="H" unicode="H" 
d="M10 57q0 4 2 13t6 18t9 15.5t10 6.5h59q2 0 6 2.5t6 4.5q-1 103 0 204t4 204q4 12 4 30v31v25l-12 11q-3 0 -11.5 0.5t-18 1.5t-18 1.5t-11.5 0.5q-11 1 -17 7t-9 14.5t-4 18t-1 18.5q0 17 10 32.5t29 15.5h184q20 0 33.5 -17t13.5 -35q0 -19 -6.5 -30t-17 -17t-25 -8
t-29.5 -3q-2 -2 -5 -5.5t-3 -5.5v-165q0 -7 5.5 -7.5t9.5 -0.5q10 0 19 2.5t19 2.5q11 0 20.5 -2.5t20.5 -2.5q10 0 19 2.5t19 2.5q11 0 17.5 -6.5t16.5 -6.5q19 0 29.5 8.5t14.5 21.5t4.5 29t0.5 32v49v48q-1 5 -16 6.5t-32 6.5t-31.5 16.5t-14.5 36.5q0 16 7 26t18 14.5
t24.5 6t26.5 1.5q16 0 30 -2t29 -2q14 0 26 2t25 2q15 0 32 -3t31.5 -10.5t23.5 -20t9 -31.5q0 -27 -20.5 -36t-44.5 -9h-29l-6 -4v-418q-5 -10 -5.5 -17t-0.5 -17t1.5 -27.5t10.5 -21.5q13 0 29.5 -1.5t30.5 -7t24 -15.5t10 -28q0 -10 -4 -20.5t-10.5 -19t-16 -14
t-20.5 -5.5h-137q-2 -1 -9.5 -3t-9.5 -3h-2q-27 0 -50 16.5t-23 44.5q0 16 6.5 25.5t17 14.5t24 6.5t27.5 2.5l11 11l8 39v161q0 5 -7 11.5t-8 8.5q-42 0 -79 4t-76 4q-4 0 -16.5 -0.5t-16.5 -0.5q-5 -2 -8.5 -8t-3.5 -11v-212l8 -7q14 0 28 -2t25.5 -7.5t18.5 -16t7 -27.5
q0 -21 -13.5 -34t-34.5 -15q-35 -3 -73.5 -5.5t-73.5 -2.5q-15 0 -29.5 1.5t-26 7.5t-18 17t-6.5 31z" />
    <glyph glyph-name="I" unicode="I" horiz-adv-x="452" 
d="M10 50q0 -17 6.5 -28t17.5 -17.5t24.5 -9t27.5 -2.5q23 0 43 2t43 2q11 0 29.5 0.5t31.5 -4.5h137q26 0 48.5 15.5t22.5 44.5q0 9 -5.5 18t-13.5 15.5t-18 10.5t-19 4h-97l-12 13v262q3 10 3.5 17t0.5 16q0 10 -0.5 16.5t-3.5 17.5v168l4 4h20q19 0 36 -2.5t36 -2.5
q26 0 43.5 8.5t17.5 37.5q0 31 -19.5 41t-46.5 12t-55 1t-44 8h-160q-10 5 -15.5 5.5t-13.5 0.5q-11 0 -23 -3.5t-21.5 -10.5t-15.5 -17t-6 -22q0 -11 6 -22t15 -20t20 -14.5t22 -5.5h106l4 -6q0 -1 0.5 -5.5t0.5 -6.5q0 -10 -1 -17.5t-6 -17.5v-442q0 -3 -7 -5.5t-15 -4
t-16 -2t-9 -0.5q-14 0 -27.5 2.5t-27.5 2.5q-26 0 -47 -14t-21 -43z" />
    <glyph glyph-name="J" unicode="J" horiz-adv-x="562" 
d="M10 147q0 -39 15.5 -69.5t41 -51t59.5 -31t70 -10.5q52 0 84 19.5t51.5 51t30 71.5t20.5 81l-2 231v20l-2 148l8 8l8.5 0.5t13.5 0.5q19 0 36.5 -2.5t37.5 -2.5t37 5t31 23v17q0 29 -18.5 42t-44.5 19h-43q-11 0 -30 0.5t-32 -4.5h-168q-12 3 -19.5 3.5t-18.5 0.5
q-26 0 -47.5 -14t-21.5 -43q0 -27 24 -45q12 -5 20.5 -7t16 -3.5t15.5 -1.5h19q17 0 32.5 2.5t32.5 2.5q3 0 8 -0.5l5 -0.5l8 -8v-21q0 -12 0.5 -26.5t-4.5 -26.5l2 -113v-20l2 -145q-1 -2 -2.5 -9.5t-1.5 -9.5q0 -4 -1 -15t-1.5 -23t-1 -22.5t-0.5 -14.5q-2 -6 -8 -17.5
t-15 -22t-18.5 -18.5t-17.5 -8h-78q-5 0 -10.5 6t-5.5 11v2q1 2 2.5 8t1.5 8q10 9 17.5 16t12.5 14.5t7.5 16t2.5 21.5q0 14 -6 30t-16.5 29t-24.5 21.5t-30 8.5q-5 0 -13 -2t-12 -6q-29 -26 -44 -55t-15 -69z" />
    <glyph glyph-name="K" unicode="K" 
d="M14 48q0 -20 10.5 -35.5t32.5 -15.5q31 0 60.5 4t58.5 4q14 0 27.5 -2t27.5 -2q23 0 44 13.5t21 39.5q0 12 -8.5 25.5t-23.5 13.5h-70l-8 10l-1 9.5t-2.5 22.5t-2.5 27t-2 23v26q0 17 1 35t7 33q3 6 14 19t24 26.5t24 23.5t13 9q4 -2 12 -14.5t18.5 -31t22.5 -40.5
t22.5 -42.5t19.5 -36.5t14 -23q1 -1 2.5 -3.5t1.5 -4.5l10 -22.5t6 -26.5q0 -12 -10.5 -15.5t-23 -5.5t-23 -8t-10.5 -24t7.5 -29t19.5 -17.5t27 -9t30 -2.5q17 0 32 2t31 2t31 -2t32 -2q32 0 50.5 11t18.5 47q0 15 -10.5 23.5t-25 13t-30 5.5t-25.5 2l-20 19
q-23 46 -46.5 91.5t-50.5 88.5q-14 21 -25.5 50.5t-21.5 47.5q-1 2 -6.5 8t-5.5 8l-0.5 4.5t-0.5 6.5q0 11 11 26.5t26 31t30.5 29.5t23.5 23q18 20 31.5 41t34.5 37q15 1 31.5 2t29.5 5.5t21.5 15t8.5 29.5q0 29 -14.5 40t-42.5 11q-17 0 -31.5 -2.5t-31.5 -2.5t-33.5 2.5
t-33.5 2.5q-11 0 -22.5 -1t-20.5 -5.5t-15 -13t-6 -22.5q0 -15 5.5 -26t12.5 -18t12.5 -12t5.5 -8q0 -7 -4 -17t-9 -15l-70 -70q-5 -17 -18.5 -31.5t-24.5 -27.5q-4 -5 -10.5 -11.5l-12.5 -12.5t-11 -10.5l-5 -4.5h-16l-8 23v114q4 13 5.5 27.5t2.5 27.5q0 1 1.5 2t2.5 2
q1 0 5 0.5t8.5 1t8.5 1.5t5 1q3 0 11 1.5t17 3.5t16.5 3.5t10.5 2.5q11 8 15.5 16.5t4.5 21.5q0 24 -19 36.5t-42 12.5q-17 0 -32.5 -2.5t-32.5 -2.5q-24 0 -45.5 6.5t-44.5 6.5q-27 0 -46.5 -12.5t-19.5 -43.5q0 -26 10 -33t23.5 -8t27 -1.5t21.5 -11.5q3 -31 3.5 -51
t0.5 -48v-24q0 -11 -6 -22v-364l-6 -4q-13 0 -25.5 -1.5t-22.5 -6.5t-16 -14t-6 -25z" />
    <glyph glyph-name="L" unicode="L" horiz-adv-x="597" 
d="M201 12q21 0 41 -6t40 -6h2q2 1 9.5 3t9.5 3h231q11 0 20.5 7.5t16 18.5t10.5 23.5t4 21.5q0 8 -0.5 13.5t-5.5 15.5v176q0 19 -10.5 33t-28.5 14q-21 0 -30.5 -14.5t-13 -36.5t-4 -48t-4 -49.5t-12 -41t-28.5 -22.5q-5 0 -16.5 -0.5t-24.5 -1t-25 -1.5t-16 -1
q-11 -1 -19 -6.5t-18 -5.5q-5 0 -6 0.5t-2.5 1.5t-4 2.5t-9.5 4.5q-3 1 -11 2l-16 2t-14 2.5t-6 4.5v388q1 2 2.5 9.5t1.5 9.5q0 5 1 17t1.5 26t1 26t0.5 17l4 4h114q18 0 28.5 12.5t10.5 29.5q0 18 -8.5 29t-21.5 17t-28.5 8t-29.5 2q-17 0 -32 -2t-31 -2q-15 0 -29 2
t-30 2t-31 -2t-31 -2q-20 0 -40 4t-40 4q-25 0 -44 -13t-19 -40q0 -17 11.5 -34t31.5 -17h106l11 -14q1 0 1 -13v-19v-33q0 -22 -5 -36v-301q5 -12 5 -25v-24q0 -4 -0.5 -15t-0.5 -15q-5 -8 -14 -14t-18 -6q-17 0 -33 6.5t-33 6.5q-26 0 -42 -13t-16 -40q0 -26 18.5 -41.5
t44.5 -15.5q32 0 62.5 4t61.5 4z" />
    <glyph glyph-name="M" unicode="M" horiz-adv-x="609" 
d="M9 57q0 23 11 31t24.5 11t24.5 6t11 16l-2 98v20q0 6 -0.5 21t-0.5 32v31v21q0 2 0.5 11t1 18.5t1 18.5t0.5 11q0 1 0.5 13.5t0.5 28.5v33v27v20v30q0 17 -0.5 31.5t-0.5 20.5q-4 10 -15.5 12t-24 5t-22 11.5t-9.5 31.5q0 17 10.5 33t29.5 16h114q12 0 26 -8t21 -19
q17 -29 21 -66t10 -71q10 -54 16 -105.5t15 -105.5q2 -12 5.5 -31.5t7.5 -38.5t7 -33t4 -15l8 -19q4 1 10.5 33.5t14 81.5t16 107t15.5 111q8 54 14.5 93t11.5 51t14.5 24.5t24.5 10.5q5 0 20.5 0.5t20.5 0.5q8 0 23.5 -0.5t17.5 -0.5q15 -1 29 -3.5t25.5 -8t18 -15.5
t6.5 -26q0 -2 -0.5 -8.5t-0.5 -8.5q-12 -17 -26 -20.5t-32 -11.5q-2 0 -3 -1.5l-1 -1.5v-388q1 -2 2 -9.5t2 -9.5q0 -5 0.5 -16.5t1.5 -25t1.5 -25t0.5 -16.5q1 -5 11.5 -5.5t23 -4.5t22.5 -15t10 -38q0 -17 -6.5 -27t-16.5 -15.5t-23.5 -7t-26.5 -1.5q-17 0 -32 2.5
t-31 2.5q-12 0 -23.5 -2t-23.5 -2t-21.5 3.5t-16.5 8t-11.5 8.5t-7.5 4l-1.5 -0.5t-2.5 -0.5q-11 -15 -21 -23t-27 -8q-12 0 -20 5.5t-13.5 12.5t-9.5 12.5t-10 5.5q-1 0 -2.5 -0.5l-1.5 -0.5l-7.5 -7.5t-10 -9.5t-11.5 -8.5t-10 -3.5h-114q-10 -5 -16.5 -5.5t-16.5 -0.5
q-27 0 -40.5 15t-13.5 42zM441 552q-2 0 -8 -31t-14.5 -78t-18 -104t-17.5 -109t-13 -92t-5 -53q5 0 17.5 2.5t25.5 7t23 10.5t10 12v126q-5 15 -5 31v29v30q0 16 5 31v188zM163 528v-407q0 -6 8.5 -12.5t10.5 -6.5l51 -12q4 -1 4 5v6q0 31 -7 61.5t-13 60.5q-8 42 -13.5 84
t-13.5 84q-5 29 -13.5 65t-9.5 68z" />
    <glyph glyph-name="N" unicode="N" 
d="M362 168l39 -125q5 -17 22 -30t35 -13q20 0 36.5 15t16.5 36l-2 325v19l-2 223l4 4h23t25.5 1.5t23.5 6.5t18 16q0 2 0.5 9t0.5 9q0 32 -24 46.5t-54 14.5q-10 0 -16.5 -1t-16.5 -6h-152q-14 0 -23 -10.5t-9 -22.5q0 -21 10 -33t25.5 -18.5t33.5 -8.5t33 -3l10 -7v-282
q2 -2 4 -10t2 -10v-17t-0.5 -25t-1 -25t-0.5 -17q-1 0 -1 -2q0 -1 -1 0t-4 5.5t-4 6.5q-22 45 -41.5 95t-36.5 93q0 1 -1.5 5t-2.5 8.5t-2.5 8.5t-1.5 5q-1 3 -7 15t-12.5 26t-12.5 26t-7 15q-2 5 -9 24t-14.5 41t-14.5 40.5t-9 23.5q-6 17 -20.5 34t-34.5 17h-113
q-24 0 -40 -15t-16 -37q0 -5 1 -12.5t3.5 -14t7 -11t12.5 -4.5h71l8 -7q0 -103 4 -204.5t4 -203.5q0 -21 -3 -40.5t-1 -41.5l-8 -8q-4 0 -13.5 -0.5t-20 -1t-20 -1t-13.5 -0.5q-18 -2 -26.5 -19.5t-12.5 -31.5v-10q0 -17 11.5 -28.5t27.5 -16.5q6 0 20.5 -1t30.5 -1.5
t30.5 -1t20.5 -0.5h15q38 0 72 5t73 3q20 5 26 20.5t6 31.5v14l-16 16q-1 1 -6.5 3t-13 4.5t-15.5 5t-12 3.5h-10q-9 0 -15.5 -4.5t-15.5 -4.5q-7 0 -18 8t-11 16v102q4 11 4 20v21v20q0 10 -4 21v200h4l11.5 -26t28 -62t33.5 -75t28 -64q13 -29 22.5 -58t24.5 -56z" />
    <glyph glyph-name="O" unicode="O" horiz-adv-x="543" 
d="M263 749q-50 0 -88 -20.5t-66 -53.5t-47 -74.5t-32 -83.5q-2 -7 -5.5 -19.5t-6.5 -25t-5.5 -22.5t-2.5 -11v-161q0 -1 1.5 -7t3 -13.5t3.5 -15t4 -11.5q6 -19 17 -44t25.5 -50.5t31.5 -47.5t35 -34q2 -2 10.5 -6t17.5 -8.5l17 -8.5l10 -5q22 -11 40.5 -19t44.5 -8
q15 0 24 2.5t16.5 6.5t15.5 8.5t20 9.5q54 21 89.5 60.5t56.5 89t29.5 105t8.5 108.5q0 54 -14 105t-37 101q-15 15 -25 33.5t-22 36.5q-6 9 -16.5 15t-18.5 12q-17 13 -32.5 23.5t-31.5 17.5t-33 11t-38 4zM96 376q0 33 10.5 81t31.5 92t53 75t76 31q28 0 45 -13.5
t39 -30.5q23 -18 37 -37.5t23 -40.5t14.5 -44.5t11.5 -49.5v-129q0 -17 -5.5 -27t-10.5 -24q-5 -18 -14 -42.5t-23 -46t-33 -37t-43 -15.5h-98q-11 0 -25 13t-27.5 30t-24 35t-13.5 27q-12 36 -18 75.5t-6 77.5z" />
    <glyph glyph-name="P" unicode="P" horiz-adv-x="578" 
d="M10 61q0 -28 19 -44.5t46 -16.5q20 0 39.5 5.5t36.5 14.5h121q18 -5 30 -7t28 -2q17 0 33.5 9t26.5 23v18q0 7 -2.5 17t-7.5 18t-12 14t-17 6h-102l-1.5 2t-2.5 3l-4 8v98q3 12 4.5 25.5t3.5 25.5l4 4h145q25 0 54.5 18t54.5 45t42 57.5t17 55.5v82q0 10 -7 29.5
t-17 40.5t-21.5 38.5t-20.5 25.5q-17 14 -37 24t-42 15q-5 1 -14 3t-17.5 3.5t-15.5 3t-8 1.5h-168q-10 -2 -15.5 -3t-13.5 -1q-19 0 -36 2.5t-37 2.5h-8h-13t-13 -0.5t-9 -0.5q-10 0 -16.5 -5.5t-11 -13t-6.5 -17t-2 -16.5q0 -23 12.5 -38t37.5 -15q14 0 26.5 2t26.5 2h23
q7 -1 10.5 -8t5.5 -12v-33q0 -42 -3.5 -81t-4.5 -82v-282l-8 -9h-102q-10 0 -16 -6t-9.5 -14.5t-4.5 -18t-1 -16.5zM247 380v145q-8 13 -7.5 33t0.5 31q0 5 0.5 16.5t0.5 13.5l4 4h33q32 0 67.5 -2t65.5 -13t49.5 -34.5t19.5 -66.5q0 -45 -16.5 -71t-43 -39.5t-61 -17.5
t-70.5 -4q-7 0 -20.5 0.5t-15.5 0.5z" />
    <glyph glyph-name="Q" unicode="Q" horiz-adv-x="558" 
d="M288 -23q1 -30 9 -62t23.5 -58.5t41 -43t61.5 -16.5q37 0 61 19.5t38 48.5t19.5 63t5.5 63q0 5 -0.5 20.5t-0.5 20.5q-2 14 -10.5 30.5t-25.5 16.5q-21 0 -31 -13.5t-13.5 -33.5t-4 -43t-3.5 -43t-11.5 -33.5t-27.5 -13.5q-14 0 -22 13t-12.5 30.5t-5.5 35.5t-1 27
q0 10 1 14.5t3 6.5t6.5 4.5t12.5 9.5q2 1 7.5 6t11 10.5t10.5 11t7 7.5q33 54 48.5 110t29.5 117v121q-6 24 -9.5 47t-10.5 47q-2 8 -7 14t-8 13q-15 34 -35 70.5t-52 59.5q-2 1 -9 5t-15.5 8.5t-16 8.5t-9.5 5q-20 11 -40.5 17.5t-44.5 6.5q-45 0 -82 -19t-65.5 -50
t-48.5 -69.5t-32 -77.5q-2 -7 -5.5 -21t-6.5 -29l-5.5 -27.5t-2.5 -16.5v-137l27 -117q0 -1 3.5 -7.5t8 -15t9 -17.5l7.5 -15q15 -29 39 -52t53 -39t61.5 -25t65.5 -9zM166 132q0 4 4.5 10.5t11 12.5t13 10t11.5 4h43q1 0 11.5 -10.5t15.5 -17.5q7 -8 9.5 -19.5t2.5 -21.5
q0 -15 -11 -18.5t-23 -3.5q-10 0 -25 3.5t-29 10.5t-24 17t-10 23zM240 251q-23 0 -48 -7.5t-45 -19.5q-2 -2 -10 -8.5t-10 -7.5l-1.5 -0.5t-2.5 -0.5l-3 1q-10 14 -17 33.5t-7 36.5v145q8 33 15 61.5t19 53t31.5 45t51.5 36.5q2 1 6.5 2.5t5.5 1.5h75q13 0 30 -13.5
t32.5 -32.5t27.5 -38t15 -30l24 -86v-113q-11 -45 -20.5 -84.5t-34.5 -80.5q-1 -1 -3.5 -4t-4.5 -4h-2h-2q-7 11 -9.5 24t-9.5 23q-19 26 -44 46.5t-59 20.5z" />
    <glyph glyph-name="R" unicode="R" 
d="M421 51q4 -24 19.5 -34t35.5 -12.5t42 -2t40 -2.5h2q20 0 31 16t11 33q0 13 -2 18t-11 19q-7 12 -17 17t-20 8t-20 7t-17 15q-8 12 -8.5 31.5t-3.5 31.5q-8 33 -19.5 71.5t-31.5 69.5v9q0 12 6 20.5t15 15.5t18.5 14t15.5 15q18 23 23 54.5t5 59.5q0 65 -26 104.5
t-68 60.5t-94.5 28t-104.5 7q-11 0 -20 -0.5t-20 -6.5h-153q-19 0 -27 -15.5t-8 -31.5q0 -10 3 -23.5t16 -17.5l63 -15l8 -8l6 -235v-20l2 -223q0 -2 -3 -6t-5 -6q-15 0 -31.5 -1t-30.5 -6t-23 -15.5t-9 -29.5q0 -9 3.5 -19t10 -19t15 -14.5t18.5 -4.5q9 0 31 -1t47 -1.5
t47.5 -1t31.5 -0.5h11q12 0 26.5 1.5t27 6.5t21 14t8.5 25q0 25 -18 36.5t-39 17.5t-39 10.5t-18 13.5v188l4 4q1 1 13 2.5t18 1.5h37h22q10 0 19.5 -0.5t19.5 -2.5t24 -5q11 -8 17.5 -22t13.5 -25q14 -24 22.5 -51t12.5 -55.5t4.5 -57t-0.5 -55.5zM217 622q5 1 18 1h18
q42 0 84 -5.5t80 -22.5q20 -15 26 -37.5t6 -45.5q0 -39 -23.5 -62.5t-59.5 -34.5h-33q-16 0 -30 2t-29 2q-12 0 -24 -2t-25 -2h-23q-2 3 -5 10t-3 10v172q0 8 9 11t14 4z" />
    <glyph glyph-name="S" unicode="S" horiz-adv-x="503" 
d="M59 306q-17 0 -29 -10.5t-12 -28.5v-231q0 -18 14 -30.5t31 -12.5q15 0 22 7.5t11 16t8.5 16t14.5 7.5q15 0 28 -6t25.5 -13.5t25.5 -13.5t27 -6h98q17 0 29.5 9.5t25.5 17.5q1 1 6.5 3.5t12.5 6t12.5 6.5t7.5 4q21 15 35 36t22.5 45.5t12.5 50.5t4 50q0 31 -8 55.5
t-22.5 44.5t-34 38t-41.5 36q-1 1 -3.5 2t-3.5 2q-24 6 -50.5 11.5t-51.5 7.5q-32 3 -64.5 5t-58.5 11t-42 30t-16 63q0 22 10 40.5t26.5 32.5t37 22t42.5 8q33 0 67 -14t61 -34q13 -10 17.5 -30.5t8 -41.5t12 -37t30.5 -16q15 0 26 12t11 27v184q0 19 -10.5 37.5
t-30.5 18.5q-11 0 -19 -6t-13 -15t-8 -19.5t-5 -19.5h-4q-12 0 -28.5 11.5t-26.5 16.5q-5 2 -17 6.5t-25.5 9.5t-26 9t-17.5 6h-9q-17 0 -38.5 -7.5t-43 -19t-40 -25.5t-29.5 -26q-11 -20 -19 -36t-13 -32t-8 -33t-3 -38q0 -45 17.5 -78t46 -56.5t66 -37t77.5 -18.5
q25 -3 48.5 -3.5t45 -4t40.5 -14t34 -33.5q3 -4 7.5 -12.5t4.5 -10.5v-70q-5 -9 -9 -20t-9.5 -21t-13 -18.5t-19.5 -11.5q-14 -4 -26.5 -5.5t-23.5 -9.5h-75q-7 4 -11 5.5t-8.5 2.5t-9.5 2.5t-14 4.5q-23 9 -40.5 29.5t-25.5 44.5q-4 14 -5 33.5t-5 37.5t-13 30.5t-30 12.5z
" />
    <glyph glyph-name="T" unicode="T" horiz-adv-x="519" 
d="M76 62q0 -12 11.5 -22.5t28 -17.5t33 -11t27.5 -4q32 0 61 10t61 10q19 0 36.5 -6.5t36.5 -6.5q13 0 25.5 2.5t22.5 8t16 15t6 23.5q0 24 -13.5 36t-33 17.5t-41.5 6.5t-38 1l-8 8l-5 321v20l-2 98q4 14 5.5 32t1.5 30l4 4q1 0 7 0.5t8 0.5q14 0 29.5 -4t29 -12.5t22 -21
t8.5 -29.5v-106q0 -18 15 -33t32 -15q21 0 33 18t12 38v199q0 19 -15.5 36t-35.5 17h-223q-9 5 -15 5.5t-14 0.5q-9 0 -14.5 -0.5t-15.5 -5.5h-121q-9 0 -16.5 -7t-13.5 -16.5t-9.5 -19.5t-3.5 -17v-192q0 -18 10 -37t30 -19q25 0 35 13.5t12 34t1.5 45.5t4.5 48.5t19.5 43
t47.5 27.5q2 1 9.5 1.5t10.5 0.5q2 0 8 -0.5t8 -1.5l4 -4v-497l-12 -13h-94q-9 0 -14.5 -6t-8.5 -14.5t-4 -17.5t-1 -15z" />
    <glyph glyph-name="U" unicode="U" 
d="M94 179q9 -20 14.5 -44t18.5 -42q30 -42 74 -66.5t97 -24.5q36 0 70 12t65 32q24 18 41.5 49.5t28.5 60.5q6 15 7 31t7 31v302q5 10 5.5 17.5t0.5 18.5q0 14 -2 26t-2 25v10q0 6 8 8q12 1 25 2t24 5t18 13t7 25q0 25 -18 40t-41 17h-9q-6 0 -13 0.5t-14 0.5h-9
q-18 0 -35 -2.5t-35 -2.5q-9 0 -17.5 2t-18.5 2q-20 0 -34.5 -12t-14.5 -33q0 -15 7.5 -25t18.5 -16.5t24 -10t25 -5.5q7 -3 9.5 -10.5t2.5 -14.5v-2q-1 -3 -2 -12t-2 -11q1 -91 -0.5 -191.5t-3.5 -188.5q-3 -12 -12 -28t-22 -29.5t-27.5 -23t-28.5 -9.5h-70q-10 0 -22.5 11
t-24 25.5t-19 29.5t-7.5 24v231q-7 11 -6.5 27t0.5 28q0 9 0.5 32.5t1.5 47.5t3.5 43t6.5 21q14 1 29 2.5t27 6.5t19.5 15.5t7.5 28.5q0 20 -13.5 34.5t-34.5 14.5h-176q-22 0 -32.5 -16.5t-10.5 -36.5q0 -11 3 -24t17 -17l64 -17v-437z" />
    <glyph glyph-name="V" unicode="V" horiz-adv-x="601" 
d="M92 625q-15 1 -29.5 3t-26.5 7.5t-19 16.5t-7 30q0 16 11 30.5t28 14.5h176q20 0 32 -15.5t12 -33.5q0 -17 -6.5 -26t-16.5 -14t-22.5 -7.5t-25.5 -5.5q-4 0 -4 -4l53 -203v-28l49 -187q2 -7 7 -12q5 2 8.5 9.5t3.5 9.5l55 219q2 37 11.5 71.5t19.5 69.5q5 17 6.5 23
t1.5 19q0 2 0.5 7t-4.5 6q-26 0 -46.5 17.5t-20.5 43.5q0 17 11 29t29 12h129q12 0 26 -3t26.5 -9.5t21 -16.5t8.5 -24q0 -16 -6 -25.5t-15.5 -14t-22.5 -6.5t-26 -3q-14 -11 -20 -27q-16 -66 -30.5 -129.5t-32.5 -129.5q-7 -26 -12.5 -55.5t-18.5 -53.5l-39 -184
q-4 -15 -21.5 -29t-35.5 -14q-17 0 -35 10.5t-29 24.5q-8 10 -12 22t-5.5 25t-2.5 26t-4 25q-11 57 -27.5 111.5t-30.5 111.5q-5 18 -6 37t-6 37q0 2 -2.5 9.5t-5.5 16t-5.5 16t-2.5 9.5q-1 4 -4.5 19.5t-7 33.5t-7 33.5t-4.5 19.5q-3 11 -6 20.5t-14 14.5z" />
    <glyph glyph-name="W" unicode="W" horiz-adv-x="605" 
d="M9 676q0 -15 5.5 -24t13 -17t15 -18t10.5 -27q18 -98 36 -195.5t34 -195.5q3 -17 5 -41.5t5 -49.5t8 -48t14 -37q8 -13 17.5 -16.5t23.5 -3.5q18 0 28 5.5t15.5 15.5t8 22.5t5.5 26.5q16 82 25.5 164.5t21.5 164.5q1 8 3.5 19.5t3.5 11.5h4q1 0 3.5 -11.5t4.5 -19.5
q8 -42 14 -85.5t10 -86.5q0 -3 0.5 -13.5t1 -23.5t1.5 -23.5t1 -13.5q1 -11 2 -30.5t3.5 -39.5t7 -37.5t10.5 -25.5q15 -20 37 -20q18 0 32 18.5t23.5 47t16.5 64t12.5 70t10 64t9.5 45.5q1 3 2.5 9.5t3.5 14t3.5 14t2.5 9.5q13 62 21 123.5t22 123.5q2 10 6.5 17.5l9 15
t8 16t3.5 19.5q0 18 -8 30.5t-27 14.5q-16 2 -36 5t-37 3q-21 0 -37 -11.5t-16 -34.5q0 -16 5 -22.5t11.5 -10t14 -7t13.5 -12.5v-29q0 -25 -4.5 -48t-7.5 -48q-8 -64 -18 -125.5t-25 -125.5h-2q-3 0 -7.5 23t-10 58t-11 76.5t-10 79t-7.5 65.5t-3 35v27q1 7 7 11.5t12.5 10
t11.5 14t5 24.5q0 23 -17.5 33t-41.5 13t-48.5 2.5t-38.5 1.5h-2q-21 0 -35 -14.5t-14 -34.5q0 -12 3.5 -19.5t9.5 -13t13 -11t14 -13.5v-29v-29q0 -2 -2 -11t-4 -18.5t-4 -18.5t-2 -11q-5 -42 -9 -84t-11 -84q-1 -9 -3.5 -22.5t-5 -26t-4.5 -21.5l-2 -9h-4q-8 60 -20 120
t-23 119q-5 27 -12.5 51.5t-7.5 52.5v21q4 7 12.5 10t16 7.5t13.5 12t6 23.5q0 17 -11 27.5t-26.5 16t-33 7.5t-30.5 2q-14 0 -27 -1.5t-23.5 -7t-16.5 -15.5t-6 -27z" />
    <glyph glyph-name="X" unicode="X" horiz-adv-x="605" 
d="M10 65q0 -32 25 -47t55 -15h2q2 0 9.5 2t16 4t16 4t9.5 2q3 0 16.5 0.5t28.5 1.5t28.5 1.5t16.5 0.5q17 1 26 12t9 27q0 15 -8 23.5t-17.5 15t-17.5 14t-8 19.5v10q20 39 39.5 73t39.5 76q1 4 4 4h6q7 0 15 -12t14.5 -27.5t11.5 -30.5t7 -20q8 -18 18.5 -36.5t21.5 -34.5
v-4q0 -9 -9 -14.5t-19.5 -12t-19 -15.5t-8.5 -26q0 -23 18 -30t38 -11q34 -1 67.5 -4.5t67.5 -3.5q26 0 45 13t19 40q0 24 -8.5 32t-21.5 9.5t-28 2t-28 8.5q-4 2 -16.5 22t-30 49t-37 62t-36 63t-27 52t-10.5 27q0 9 4 18t10 18.5t12 18t10 15.5q1 1 4.5 7.5t7 14t7 13.5
t4.5 8q7 12 15 30t17 35.5t18.5 32.5t20.5 23q15 0 33.5 0.5t34.5 5t27 15t11 32.5q0 17 -6.5 26.5t-16.5 14.5t-23.5 6.5t-26.5 1.5q-17 0 -31.5 -2t-31.5 -2q-15 0 -29 2t-30 2q-12 0 -24 -1t-22 -5t-16 -12.5t-6 -23.5q0 -17 7.5 -25.5t16 -15t16 -13t7.5 -18.5
q0 -8 -7.5 -27.5t-18 -40.5t-21.5 -37t-18 -16q-6 0 -17 15.5t-21.5 36t-18.5 39.5t-8 27q0 10 7 15.5t15 11t15 13.5t7 25q0 11 -3 24t-17 16l-47 12h-160q-21 0 -30.5 -14t-9.5 -32q0 -24 11 -35.5t28 -16t37 -4.5h38q12 -5 20.5 -17.5t14.5 -27.5t11.5 -30.5t12.5 -26.5
q1 -2 5 -8t8.5 -13t8.5 -13.5t5 -8.5q2 -3 6.5 -11t9.5 -17t9.5 -17.5t6.5 -12.5q4 -8 4 -13v-13q0 -14 -10.5 -37.5t-25.5 -48t-30 -46.5t-24 -34q-12 -16 -16.5 -36.5t-15.5 -37.5q-2 -3 -6.5 -10.5t-10.5 -14.5t-13 -12.5t-13 -5.5h-47q-9 0 -14.5 -5t-9.5 -12.5
t-5.5 -16t-1.5 -14.5z" />
    <glyph glyph-name="Y" unicode="Y" 
d="M119 58q0 -23 18 -39t41 -16h130l19 6h137q19 0 29.5 18t10.5 34q0 20 -19 29t-37 11q-5 0 -16.5 1t-24.5 1.5t-24.5 1t-16.5 0.5l-4 4l-8 39v145q0 1 1.5 5t2.5 6q31 64 61 127.5t61 127.5q2 5 6.5 13.5t8.5 17.5t7.5 15.5t4.5 8.5q2 2 6 6.5t6 4.5h55q7 0 12.5 4.5
t8.5 11t4.5 13.5t1.5 13q0 15 -7.5 26t-19.5 18.5t-26 11.5t-27 4q-15 0 -29 -2t-30 -2q-17 0 -31.5 2t-31.5 2q-20 0 -34.5 -9.5t-14.5 -31.5q0 -18 6 -26t15 -13.5t18.5 -10.5t15.5 -15q1 -2 1 -7v-6q0 -14 -4.5 -26t-10.5 -23.5t-13 -23t-12 -23.5q-1 -2 -3 -8
l-4.5 -13.5t-5 -14t-2.5 -7.5q-2 -3 -5.5 -11t-8 -17t-8.5 -16.5t-6 -10.5q-1 -4 -5 -4h-5q-6 0 -11 5t-9 11.5t-7 14t-6 12.5l-59 118q-2 4 -7.5 19t-7.5 20l-0.5 1.5t-0.5 2.5q0 8 9.5 11t20.5 7t20.5 12.5t9.5 26.5q0 24 -14 35t-34 14.5t-41.5 2.5t-36.5 0q-2 0 -9.5 2
t-9.5 2h-6q-16 0 -34 -2.5t-33.5 -9.5t-26 -19.5t-10.5 -32.5q0 -18 9.5 -27.5t23 -13t29 -4t28.5 -0.5q10 -8 16.5 -18.5t11.5 -22.5t10.5 -24t12.5 -22q1 -1 6 -7t6 -8q10 -23 16 -45t23 -41l62 -137v-184l-3 -4q-2 0 -12 -0.5t-15 -0.5q-17 0 -31.5 2.5t-30.5 2.5
q-20 0 -36.5 -15.5t-16.5 -35.5z" />
    <glyph glyph-name="Z" unicode="Z" horiz-adv-x="535" 
d="M10 60q0 -21 11 -32.5t27 -17t34.5 -7t34.5 -1.5q12 0 23.5 0.5t22.5 6.5h309q16 0 33.5 14t17.5 31v200q0 18 -10.5 34.5t-30.5 16.5t-29 -11t-13 -28.5t-5 -39t-3.5 -42.5t-8.5 -39t-21 -28q-4 -3 -13 -7.5t-11 -4.5h-211q-8 0 -10.5 5.5t-2.5 10.5q0 6 11.5 24.5
t26.5 41t29.5 42.5t19.5 29q1 1 3 5t5 8.5t5 8.5t3 5q21 32 46.5 61t47.5 60q17 24 28 52t31 50q12 15 29.5 35t33.5 43t27.5 47t11.5 45q0 19 -11 29t-29 13h-34t-52 0.5t-61 1t-61 1t-52 1t-34 0.5h-18q-24 0 -36 -5.5t-18 -16.5t-8.5 -26.5t-5.5 -34.5q0 -2 -2 -10.5
t-4 -18t-3.5 -18.5t-1.5 -11q0 -1 -0.5 -7t-0.5 -14v-16v-12v-10v-15t0.5 -14.5t0.5 -9.5q2 -16 11 -28t26 -12q26 0 34.5 21.5t11.5 49.5t7.5 55.5t22.5 38.5q3 2 7.5 4.5t9.5 5l9 4.5t5 2h149q6 0 7.5 -5t1.5 -9q0 -8 -16.5 -33t-37.5 -53.5t-41 -55t-27 -36.5
q-17 -24 -32 -49t-31 -49q-21 -33 -45.5 -64t-44.5 -65q-9 -16 -25.5 -33.5t-32.5 -36.5t-28 -38.5t-12 -38.5z" />
    <glyph glyph-name=".0091" unicode="[" horiz-adv-x="500" 
d="M141 658v-699q0 -17 5 -22.5t13 -5.5q5 0 10.5 1t11.5 2q1 1 4 1q5 1 10.5 2t9.5 1t11.5 -1t16.5 -3q5 0 10.5 -1t11.5 -1q4 -1 8 -1h8q16 0 29 5.5t13 22.5q0 22 -8.5 30.5t-19.5 8.5q-10 0 -21 -4h-2q-5 -1 -10.5 -2t-9.5 -1q-9 0 -16 7.5t-7 24.5v570q0 27 22 27
q5 0 10.5 -1t12.5 -2h2q7 -2 13.5 -3t10.5 -1q10 0 16.5 7t6.5 23q0 21 -13 28.5t-29 7.5h-7t-7 -1q-5 0 -10 -1l-10 -2q-8 -1 -14.5 -2.5t-10.5 -1.5t-10 1t-13 2q-1 0 -2 0.5t-2 0.5q-6 1 -11.5 1.5t-9.5 0.5q-9 0 -16 -4t-7 -15z" />
    <glyph glyph-name=".0092" unicode="\" horiz-adv-x="574" 
d="M351 212q8 -11 12 -23.5t11 -23.5q16 -27 31.5 -56t27.5 -58q9 -22 17.5 -45.5t25.5 -40.5q8 -8 20 -8h21h9t15 0.5t14.5 3t6.5 8.5v27q-1 1 -4.5 10.5t-9.5 23t-9 21.5q-14 30 -32 58t-35 56q-12 19 -20 40.5t-19 41.5q-31 51 -55.5 106t-50.5 109q-43 90 -93 175
t-95 174q-2 4 -6.5 13.5t-9.5 21t-9.5 21.5t-5.5 14q-12 20 -33 20q-8 0 -19 -1t-21.5 -4t-17.5 -9.5t-7 -17.5v-8q24 -54 55 -106.5t59 -104.5q1 -2 3.5 -6t3.5 -6l102 -199l8 -12z" />
    <glyph glyph-name="grave" unicode="`" horiz-adv-x="213" 
d="M9 694q0 -29 30 -29q21 0 36.5 11.5t32.5 20.5q12 7 28 13t30.5 13.5t24.5 19t10 28.5q0 18 -10.5 30.5t-30.5 12.5q-12 0 -22 -4.5t-19 -11.5t-17.5 -14t-17.5 -13q-1 -1 -6.5 -3.5t-11.5 -6t-11 -6t-6 -3.5l-5.5 -5.5t-10.5 -10t-11 -11t-8 -8.5q-5 -5 -5 -12v-11z" />
    <glyph glyph-name="a" unicode="a" horiz-adv-x="558" 
d="M10 161q0 -47 18.5 -82.5t59.5 -59.5q8 -5 16 -10.5t19 -5.5h90q17 0 33 6.5t31 16t29.5 19.5t28.5 17h5q7 0 12.5 -5t10 -11.5l9 -13t10.5 -9.5q17 -11 31 -15.5t33 -4.5q24 0 42.5 11t31 28.5t19.5 39.5t7 44q0 10 -2 20.5t-7 19.5t-13 15t-19 6q-21 0 -27.5 -14
t-9.5 -31.5t-7 -31.5t-20 -14q-24 0 -24 28v169q5 12 4.5 27.5t-0.5 27.5v31q0 3 -1.5 10.5t-3.5 16t-4 16.5t-3 11q-3 12 -15.5 29t-29 32t-34 26t-30.5 11h-153q-16 0 -28 -9.5t-23 -17.5q-13 -9 -26 -19.5t-23 -22.5t-16 -26t-6 -32q0 -31 20.5 -52t52.5 -21
q21 0 33.5 8.5t19 21t9.5 27.5l5.5 27.5t5.5 21t11 8.5h94q1 0 13 -6l18 -9q16 -9 22 -24t6 -32q0 -24 -24 -32t-60 -11t-78.5 -6.5t-78.5 -19t-60 -49t-24 -95.5zM88 162q0 11 7.5 26t12.5 22q10 15 23 16q25 4 49.5 6t48.5 6q3 0 16.5 2.5t28.5 5t28.5 5t16.5 2.5l2 1
q1 0 1.5 -0.5l0.5 -0.5q1 0 4 -1.5t4 -1.5v-12q0 -43 -13 -70t-50 -52q-2 -1 -9.5 -5t-9.5 -6q-4 -2 -9.5 -5t-6.5 -3h-102q-10 0 -18 7t-13.5 17.5t-8.5 21.5t-3 19z" />
    <glyph glyph-name="b" unicode="b" horiz-adv-x="570" 
d="M225 37q12 0 18.5 -8t17.5 -12q20 -8 41 -14t43 -6q40 0 73 15.5t58 41t42.5 58.5t27.5 69q1 5 3.5 12.5t4 15t3 13.5l1.5 6v106q0 1 -1.5 7t-2.5 8q-8 26 -16 46t-19 37.5t-25 34t-34 35.5q-10 9 -20.5 20t-26.5 11h-98q-12 0 -22 -6.5t-19.5 -15t-19 -15t-21.5 -6.5
q-3 0 -6.5 1.5t-3.5 6.5v172q0 9 -5 17.5t-13 15t-17 10.5t-17 4h-122q-4 0 -8 -4q-2 -1 -5.5 -5t-8 -8.5l-8.5 -8.5l-5 -5q-5 -5 -4.5 -10.5t0.5 -11.5q0 -16 9 -25.5t22.5 -15t29 -7t27.5 -1.5q1 0 1.5 0.5l0.5 0.5q2 0 12 1.5t12 1.5l2.5 -1t4.5 -2t4 -2.5l2 -1.5v-415
q5 -10 5.5 -16.5t0.5 -16.5q0 -26 -6 -51.5t-6 -51.5q0 -21 9 -37t32 -16q18 0 25 6.5t20 21.5q2 0 4.5 0.5t3.5 0.5zM476 268q0 -41 -9 -72.5t-38 -61.5q-5 -5 -13.5 -14t-14.5 -14.5t-7 -6.5h-98q-6 0 -14.5 8.5t-17 20t-15 22t-8.5 15.5q-2 6 -6 15.5t-7 16t-3 7.5v106
q0 12 8.5 34t22 43t29 36.5t30.5 15.5h75q9 0 18 -5.5t17 -14t14 -17t9 -14.5q19 -31 23.5 -57.5t4.5 -62.5z" />
    <glyph glyph-name="c" unicode="c" horiz-adv-x="441" 
d="M9 260q0 -46 17.5 -92t48.5 -82.5t73 -59.5t91 -23q33 0 67 14t61.5 37.5t45 54.5t17.5 66q0 17 -8 30.5t-26 13.5q-12 0 -21 -8.5t-17 -21t-15.5 -27.5t-17 -27.5t-21.5 -21t-28 -8.5h-86q-2 0 -9 4.5t-10 7.5t-10.5 10t-15.5 15t-15 15.5t-10 10.5q-14 21 -19 51.5
t-5 55.5q0 28 4 54t14 48t27.5 39.5t44.5 29.5q5 2 13.5 4.5t10.5 2.5h66q5 0 12 -7l8 -8v-16q0 -14 -4 -24.5t-4 -23.5q0 -30 21 -52t52 -22q17 0 29.5 7.5t21 19.5t13 27.5t4.5 30.5q0 23 -9 43.5t-23.5 38t-32 32.5t-33.5 29q-4 1 -15 4.5t-23.5 6.5t-24 5.5t-15.5 2.5
q-1 1 -10 1h-13q-56 0 -97.5 -26.5t-69 -68t-41 -93t-13.5 -100.5z" />
    <glyph glyph-name="d" unicode="d" horiz-adv-x="562" 
d="M208 540q-9 0 -19.5 -0.5t-21.5 -2t-20.5 -4.5t-15.5 -9l-82 -83l-1.5 -3t-2.5 -4q-1 -3 -4.5 -14t-7 -24t-7 -23.5l-4.5 -13.5q-2 -5 -7 -16.5t-5 -18.5v-121q0 -2 1.5 -8.5t4 -13t4.5 -12t2 -6.5q12 -33 32.5 -62t47 -50.5t59 -34.5t69.5 -13q25 0 43.5 9t41.5 22
q7 4 10 7t4.5 5t4 3.5t7.5 1.5q1 0 3 -0.5t3 -0.5q22 -26 46.5 -33t58.5 -7q15 0 32.5 1.5t32.5 7.5t24.5 18t9.5 32q0 18 -13.5 26t-31.5 10.5t-36.5 1t-28.5 -1.5l-10 8v227l-8 19v309q0 8 -4 17t-10.5 16.5t-14.5 12.5t-16 5h-121q-14 0 -23 -8.5t-9 -22.5
q0 -29 18.5 -39t40.5 -12.5t40.5 -4.5t18.5 -15v-93l-8 -24l-2.5 -0.5t-3.5 -0.5q-14 0 -20 6.5t-17 14.5q-19 12 -41 16t-43 4zM96 279q0 25 5.5 56t19 57t36 44t55.5 18q34 0 59 -18t41 -45t23.5 -59t7.5 -61q0 -24 -7 -54.5t-21.5 -57t-36 -45t-50.5 -18.5
q-36 0 -61.5 17t-41 44t-22.5 59.5t-7 62.5z" />
    <glyph glyph-name="e" unicode="e" horiz-adv-x="460" 
d="M10 246q0 -49 15 -93.5t43 -78.5t69 -54t92 -20q52 0 101 19t79 63q12 18 22 36.5t10 41.5q0 14 -9.5 23t-24.5 9q-16 0 -27 -8t-20.5 -20t-18 -25t-18.5 -22q-13 -11 -31 -15.5t-32 -15.5q-3 0 -13.5 -0.5t-13.5 -0.5q-30 0 -55 11.5t-43.5 31t-29 45.5t-10.5 55
q0 2 0.5 8t0.5 7l4 3l11 1t26 1.5t30.5 1t26.5 0.5t39.5 0.5t59.5 0.5q32 0 60.5 -0.5t39.5 -0.5q16 3 31 8t24 20q0 2 0.5 8.5t0.5 8.5q0 9 -4 27.5t-9.5 38t-12 36t-10.5 22.5q-38 48 -82 78.5t-108 30.5q-11 0 -22.5 0.5t-22.5 -4.5q-3 -1 -10.5 -4.5t-16.5 -8l-17 -8.5
t-11 -6q-33 -18 -54.5 -46.5t-34.5 -62t-18.5 -70.5t-5.5 -72zM104 338q0 25 12 43.5t30 30.5t40 17.5t43 5.5q19 0 40.5 -4.5t39.5 -14t30 -26t12 -40.5v-7t-1 -7q-2 -2 -5.5 -4.5t-5.5 -2.5h-231q-4 0 -4 3v6z" />
    <glyph glyph-name="f" unicode="f" horiz-adv-x="531" 
d="M10 48q0 -14 9 -27.5t26 -13.5h298q17 0 24.5 13.5t7.5 27.5q0 8 -2.5 18t-7.5 18.5t-12.5 14.5t-17.5 6h-94v325l4 4h17q14 0 26 -2t26 -2q23 0 42 12.5t19 37.5q0 19 -7.5 28.5t-19.5 13.5t-27 4.5t-29 1.5q-5 0 -13 0.5t-15.5 1t-13 1.5l-5.5 1l-4 4q0 1 -0.5 7
t-0.5 8q0 19 8.5 35.5t22 27.5t31.5 17.5t36 6.5q15 0 24.5 -2.5t23.5 -13.5q-2 -17 -1.5 -38t6.5 -39.5t19 -31.5t37 -13q18 0 31.5 7.5t22.5 20.5t13.5 28.5t4.5 32.5q0 36 -19 61.5t-48 42t-63 24t-64 7.5h-2q-12 -3 -30 -5.5t-32 -10.5q-2 -1 -6.5 -4t-5.5 -4
q-27 -16 -43 -31t-26 -32t-16 -38.5t-13 -51.5l-8 -7q-15 0 -37 1t-41.5 -2.5t-33.5 -14t-14 -33.5q0 -2 0.5 -9t0.5 -9q15 -18 27 -27t34 -9q15 0 27 6.5t25 6.5q6 0 13 -4.5t7 -11.5v-321l-4 -4l-5 -1.5t-11 -2.5t-12.5 -2.5t-10.5 -1.5h-10q-9 0 -17.5 2t-17.5 2
q-26 0 -39.5 -16t-13.5 -41z" />
    <glyph glyph-name="g" unicode="g" horiz-adv-x="546" 
d="M10 -46q0 -46 22.5 -73.5t63.5 -41.5q8 -2 13.5 -7.5t13.5 -8.5q42 -15 82 -19t85 -4q40 0 81.5 8.5t75.5 28t55 52t21 80.5q0 19 -5 34t-14 27.5t-21 23.5t-27 24q-7 6 -10 9l-5 5t-5.5 4t-10.5 5q-17 6 -40 6q-22 0 -35 2q-2 0 -10.5 2t-18.5 4t-18.5 4t-10.5 2h-35
q-35 0 -68 -10t-68 -10q-5 0 -10 4t-7 8v14q0 16 6.5 28.5t25.5 12.5q16 0 30 -4.5t27.5 -9.5t27.5 -9.5t30 -4.5q12 0 19.5 1.5t14 4.5t13.5 6.5t17 7.5q26 10 44.5 27.5t30.5 40t17.5 48.5t5.5 53q0 25 -7 47.5t-7 47.5q6 0 11.5 -10t13.5 -22.5t21 -22.5t35 -10
q31 0 43 22.5t12 50.5q0 22 -10.5 40t-27 30.5t-37.5 19t-41 6.5q-39 0 -69 -28h-19q-14 0 -27 4.5t-25.5 9.5t-25.5 9.5t-26 4.5q-3 0 -9 -1.5t-12 -3.5t-11.5 -4t-8.5 -3q-57 -25 -89.5 -72t-32.5 -110q0 -23 6.5 -44t6.5 -44v-6t-1 -6q-24 -23 -39.5 -48.5t-15.5 -59.5
q0 -11 4 -21.5t8.5 -20.5t8.5 -20t4 -20l-1 -5q-17 -19 -26 -38t-9 -47zM96 -51v17q0 25 16.5 38.5t40 20.5t49.5 8.5t45 1.5q14 0 46.5 -2t66 -9.5t59 -21.5t25.5 -38q0 -15 -10 -26t-24 -19t-29.5 -13t-26.5 -8q-29 -2 -62.5 -3t-65.5 -1q-39 0 -71.5 13t-58.5 42z
M135 330q0 22 9 41t24 33t34.5 22t40.5 8q46 0 69 -30.5t23 -75.5q0 -22 -7 -42t-20 -35t-31.5 -24t-41.5 -9q-21 0 -39.5 10t-32 25.5t-21 35.5t-7.5 41z" />
    <glyph glyph-name="h" unicode="h" horiz-adv-x="605" 
d="M10 49q0 -24 19.5 -40t42.5 -16q20 0 38 6t38 6q17 0 33.5 -2.5t34.5 -2.5q22 0 40 4.5t32 23.5v18q0 28 -13.5 38t-29.5 13.5t-29.5 7t-13.5 17.5v98q0 2 1.5 10t2.5 10q0 1 0.5 5t1 8.5t1.5 8.5t1 5q8 27 22.5 56.5t34.5 54.5t46.5 41.5t58.5 16.5q24 0 34.5 -12
t14 -29.5t2 -38t-1.5 -37.5v-64q0 -8 -0.5 -28.5t-1 -44t-1.5 -44t-1 -28.5q-6 -5 -13.5 -6.5t-15.5 -2.5t-15.5 -3t-14.5 -7q-17 -14 -22.5 -21.5t-5.5 -27.5q0 -12 5 -19t13.5 -11.5t18.5 -6.5t19 -4q5 0 20.5 -0.5t20.5 -0.5q18 0 35 2.5t35 2.5q8 0 16 -2t16 -2
q24 0 44 11.5t20 37.5q0 16 -6.5 26t-17 16t-24 8t-26.5 3l-12 11v270q0 31 -9.5 57.5t-26.5 46t-42.5 30.5t-56.5 11q-40 0 -74.5 -18t-60.5 -48q-5 -6 -10.5 -18t-13.5 -14q-2 0 -6.5 1t-6.5 1v217q0 28 -21 43.5t-46 15.5h-6q-2 0 -9.5 -2t-9.5 -2q-13 -1 -30 -1
q-16 0 -30 -3t-24 -12.5t-10 -28.5q0 -4 2 -13t6 -18t8.5 -15.5t10.5 -6.5h55q6 0 10 -5.5t6 -9.5q0 -6 0.5 -20.5t1 -31t1.5 -30.5t1 -20q0 -2 1.5 -10t2.5 -10v-129l-6 -19v-219q0 -2 -7 -8t-11 -8l-5 -0.5t-8 -0.5q-12 0 -20.5 4.5t-20.5 4.5q-20 0 -26 -14.5t-6 -31.5z
" />
    <glyph glyph-name="i" unicode="i" horiz-adv-x="433" 
d="M10 48q0 -17 10.5 -29t28.5 -12h341q17 0 24.5 14t7.5 28q0 7 -2.5 17t-8 19t-13 15.5t-16.5 6.5h-106l-6 6v372q0 21 -18.5 32t-35.5 11q-12 0 -23.5 -2t-23.5 -2q-17 0 -33.5 2t-33.5 2q-11 0 -24.5 -1.5t-25 -6t-19.5 -13.5t-8 -25q0 -8 2.5 -17.5t7.5 -17.5
t12.5 -13.5t17.5 -5.5h117v-221q-1 -2 -2 -10t-2 -10q0 -4 -0.5 -14t-1.5 -21t-1.5 -21t-0.5 -14l-7 -10h-110q-24 0 -35.5 -19.5t-11.5 -39.5zM143 651q0 -33 17.5 -57t51.5 -24q28 0 50 17.5t22 47.5q0 15 -5.5 30t-15 27.5t-23 20t-29.5 7.5q-30 0 -49 -20t-19 -49z" />
    <glyph glyph-name="j" unicode="j" horiz-adv-x="390" 
d="M10 -10q0 -20 2 -44.5t10 -43.5q8 -21 25 -39t38.5 -31t45 -20.5t45.5 -7.5q11 0 31 5t41 13.5t39 19t25 21.5q26 42 37 91t17 97q2 17 2.5 31.5t5.5 30.5v380q0 14 -10.5 24.5t-24.5 10.5h-168q-16 0 -32 -10.5t-16 -26.5q0 -17 8 -28.5t20.5 -18.5t27.5 -10.5t29 -3.5
q17 0 32 2.5t32 2.5h10t6 -1l8 -7q0 -1 0.5 -7t0.5 -9q0 -11 -1 -21.5t-6 -21.5v-200q-2 -2 -4 -9.5t-2 -9.5v-67q0 -5 -0.5 -18.5t-1 -28.5t-1.5 -28.5t-1 -18.5q-1 -3 -3.5 -12t-4.5 -11q0 -2 -1.5 -5t-2.5 -3l-43 -43q0 -1 -3 -2t-4 -2l-12 -4h-59q-5 0 -11 4.5t-11.5 11
t-9 13.5t-3.5 12t6.5 13t15 18.5t15 24t6.5 30.5q0 29 -18 51t-47 22q-14 0 -25 -3t-20 -17q-12 -19 -23.5 -45.5t-11.5 -50.5zM248 656q0 -14 4 -27.5t11.5 -24.5t19 -18t27.5 -7q15 0 27.5 6.5t22 17t14.5 24.5t5 28q0 12 -5.5 26t-15 26.5t-21.5 20.5t-25 8h-9
q-3 0 -7 -4q-20 -17 -34 -33t-14 -43z" />
    <glyph glyph-name="k" unicode="k" horiz-adv-x="594" 
d="M10 49q0 -26 18.5 -35.5t40.5 -13.5h45q24 0 47 2t47 2q14 0 27.5 -2t27.5 -2q17 0 31.5 10t28.5 10q8 0 16 -5t16 -7q9 -2 26 -5t25 -3h60h61q9 2 19 4.5t18 7t13.5 11.5t5.5 18q0 2 -0.5 7.5t-0.5 6.5q-6 23 -17.5 34t-27 15.5t-34 5t-38.5 0.5q-17 13 -24.5 31
t-19.5 35q-1 2 -6.5 9t-12.5 15t-13 14.5t-7 8.5q-13 17 -28 37t-15 41q0 12 4.5 19t11.5 12t15.5 10t15.5 11q9 7 19.5 19t23.5 24t26.5 21t28.5 10q13 1 25 1q13 0 23 3t16.5 10.5t6.5 24.5q0 25 -19 36.5t-44.5 16t-52 4t-41.5 -0.5h-10t-15.5 -0.5t-15.5 -0.5h-10
q-14 -4 -25 -12.5t-11 -24.5q0 -17 12.5 -29.5l23.5 -23.5q-2 -2 -8 -10t-8 -10q-6 -6 -20.5 -21t-31.5 -32t-32 -31.5t-21 -20.5q-1 0 -2.5 -0.5l-1.5 -0.5q-2 0 -5 0.5t-3 4.5v223q3 9 3.5 15t0.5 14q0 28 -3 50t-1 54q-3 24 -22.5 37.5t-42.5 13.5h-2q-2 0 -11.5 -2
t-11.5 -2h-2h-2q-2 0 -12 2t-12 2h-6q-23 0 -44 -13t-21 -38q0 -19 8.5 -28t21.5 -12t29 -3h32q5 -4 10 -12t5 -15v-326l-5 -19v-141l-4 -1.5t-6 -2.5l-12 -4h-67q-5 0 -10 -6.5t-9 -15.5t-6 -18t-2 -13zM273 243q4 0 18 -19.5t29 -44t27 -47.5t12 -30q0 -12 -13 -24
t-24 -12h-4t-2 1q-2 0 -8 5t-8 6q-4 2 -18 4.5t-29 6.5t-27 9t-12 12v82q1 1 4.5 5.5t9.5 11.5t9 10q7 8 16 16t20 8z" />
    <glyph glyph-name="l" unicode="l" horiz-adv-x="495" 
d="M9 47q0 -17 15.5 -28.5t32.5 -11.5h387q21 0 30.5 14t9.5 32q0 8 -2.5 17.5t-7.5 17.5t-12.5 13.5t-17.5 5.5h-133l-10 9v532q0 17 -8.5 28.5t-21.5 18t-28 9.5t-28 3q-14 0 -27 -2t-27 -2q-18 0 -35.5 4t-35.5 4q-25 0 -46.5 -10.5t-21.5 -38.5q0 -13 3 -19.5t8.5 -10.5
t13.5 -6t18 -5q14 -5 23.5 -8.5t26.5 -3.5h16q3 0 11 1.5t17 3.5t16.5 4t10.5 3q3 -1 15 -7.5t12 -12.5v-168l-6 -19v-301l-5 -6h-153q-11 0 -18.5 -6.5t-12.5 -15.5t-7 -19.5t-2 -18.5z" />
    <glyph glyph-name="m" unicode="m" horiz-adv-x="609" 
d="M409 13q9 0 17.5 -5.5t17.5 -6.5q29 -5 55 -12.5t55 -7.5q19 0 31 18t12 35q0 12 -4.5 18.5t-11 12l-13 11t-10.5 15.5v45q0 11 -0.5 30.5t4.5 33.5v223q0 2 -1.5 8t-2.5 8q-7 16 -15 30.5t-19 26t-25.5 18.5t-32.5 7q-25 0 -39.5 -6t-25.5 -15t-21.5 -21t-25.5 -24
q-13 10 -23 22t-20.5 22.5t-24.5 18t-35 7.5q-11 0 -24 -6t-25 -14t-22 -18l-17 -17h-2h-2q-3 1 -7.5 6.5t-9.5 11t-9 10.5t-6 7q-8 8 -21 8.5t-24 0.5q-26 0 -45 -9t-19 -39q0 -19 9 -28t20.5 -13t20.5 -6t9 -7v-263l-8 -54q-1 -7 -10.5 -9.5t-20 -6.5t-19.5 -12t-9 -26
q0 -11 6.5 -21.5t16 -18t21.5 -12t23 -4.5h82q8 0 16.5 4t16 9.5t14 11.5t11.5 10h2q5 0 16 -5.5l24 -12t25 -12t20 -5.5h58q8 0 13.5 4.5t10.5 9.5t10.5 9.5t12.5 4.5zM245 427q2 0 6 0.5t6 0.5q5 0 14 -1.5t9 -11.5v-309q0 -5 -8.5 -13t-19.5 -17t-21.5 -16.5t-13.5 -11.5
h-3q-2 3 -11.5 12t-12.5 11q-2 1 -11.5 4t-11.5 4t-5 4t-3 4v188q0 20 7 42.5t19 43.5t27.5 38.5t32.5 27.5zM354 151q0 47 4 94t20 92q0 1 3.5 6t4.5 6q2 3 6.5 11.5t9.5 18t9 18t6 11.5q8 8 16 14t19 6q5 0 14.5 -1.5t9.5 -11.5v-317q0 -9 -5.5 -13.5t-13.5 -7t-16 -4
t-12 -2.5l-16 -8h-4h-4q-18 6 -28.5 13.5t-15.5 18t-6 24t-1 32.5z" />
    <glyph glyph-name="n" unicode="n" horiz-adv-x="566" 
d="M10 57q0 -22 8 -32t21.5 -14t30.5 -4.5t34 -2.5q2 0 10 -2t10 -2h41h41q20 2 35.5 12.5t15.5 31.5q0 26 -10.5 36t-25 14t-28 5.5t-19.5 10.5v15q0 11 0.5 18t5.5 17v114l5.5 9t8.5 14q1 2 4 6.5t4 5.5q11 19 25.5 40.5t32.5 39.5t39.5 30t46.5 12q15 0 29 -2.5t23 -17.5
q0 -3 0.5 -11t1 -16.5t1 -16.5t0.5 -11q1 -2 2.5 -11.5t1.5 -11.5v-2v-2q0 -3 -2.5 -12t-3.5 -12v-152l-9 -39l-4 -4q-32 -2 -53.5 -12.5t-21.5 -48.5q0 -32 32 -41q8 0 28 -1t42.5 -1.5t42.5 -1t28 -0.5h15q24 0 39.5 8.5t15.5 34.5q0 32 -21.5 45t-48.5 18l-4 4l-0.5 5.5
t-0.5 8.5q0 11 0.5 20t4.5 20v247q0 23 -11 45t-28.5 39t-40 27.5t-44.5 10.5q-36 0 -67.5 -19.5t-59.5 -39.5q-6 -4 -12 -12l-12 -16t-11.5 -14t-11.5 -6h-2q-1 0 -2 1q-2 26 -6 43t-14 27.5t-27.5 16.5t-46.5 10q0 1 -7 1h-9q-22 0 -40.5 -9.5t-18.5 -35.5
q0 -24 12.5 -35.5t27 -17.5t27 -9.5t12.5 -10.5v-231q-3 -15 -4.5 -33.5t-3.5 -32.5l-4 -4q-30 -2 -50 -10.5t-20 -42.5z" />
    <glyph glyph-name="o" unicode="o" horiz-adv-x="488" 
d="M10 253q0 -22 6.5 -53t18.5 -62t28.5 -58t36.5 -40q1 -1 8.5 -4.5t16 -8l17 -9t13.5 -6.5q6 -2 20 -4t19 -3q11 -3 17 -6.5t11.5 -6.5t13.5 -5t23 -2q30 0 60.5 16t56.5 40.5t45.5 54.5t27.5 57q1 6 5 22t8.5 33.5t8 33t5.5 21.5q0 2 0.5 10.5t0.5 11.5q0 26 -6.5 50.5
t-17 48t-23 46t-24.5 45.5q-1 0 -2 1.5t-2 2.5q-35 30 -70 48.5t-83 18.5q-63 0 -108.5 -24.5t-74.5 -65.5t-42.5 -94t-13.5 -109zM96 252q0 28 2.5 53t11 47.5t23 42.5t38.5 37q6 4 18 11.5t13 7.5h63q10 -6 24.5 -11t28 -11.5t25 -15t16.5 -21.5q11 -29 17.5 -55.5
t6.5 -57.5q0 -53 -14 -93.5t-57 -75.5q-18 -7 -32.5 -7.5t-34.5 -0.5h-21q-13 0 -14 1q-5 0 -12 1t-13.5 2t-12 2.5l-5.5 1.5l-47 47q-6 6 -10.5 18.5t-7.5 26.5t-4.5 28t-1.5 22z" />
    <glyph glyph-name="p" unicode="p" horiz-adv-x="570" 
d="M10 -128q0 -12 7 -21.5t17.5 -16.5t22.5 -10.5t23 -3.5h200q20 0 33.5 15t13.5 34q0 7 -1.5 15.5t-5 16.5t-9.5 13.5t-15 5.5h-71l-8 10v117q0 6 4.5 9t9.5 3q10 0 21 -6t21.5 -14t21 -15.5t20.5 -11.5q13 -5 22 -4.5t23 0.5q13 0 23 1t18 3.5t16.5 7t19.5 11.5
q37 24 60.5 51.5t37 59t19 68t5.5 78.5q0 40 -13 85.5t-37.5 83.5t-61 63t-83.5 25q-5 0 -14.5 -0.5t-10.5 -0.5q-2 0 -10 -1.5t-10 -2.5q-1 0 -6.5 -0.5t-11.5 -1t-11 -1t-6 -1.5q-1 0 -5 -4l-8.5 -8.5t-8.5 -9t-5 -5.5q-6 -5 -17.5 -14.5t-18.5 -9.5h-2q-1 0 -2 1
q-7 20 -21.5 30.5t-32.5 15t-38 5t-39 0.5q-12 0 -24 -2t-22 -7t-16.5 -14t-6.5 -24q0 -20 14.5 -26t34 -8.5t39 -6t30.5 -18.5q0 -3 0.5 -13t0.5 -13q0 -18 -2.5 -35t-2.5 -35q0 -20 2.5 -39t2.5 -39q0 -17 -2.5 -32t-2.5 -31q0 -9 2 -17.5t2 -17.5v-2q0 -2 -1.5 -12
t-2.5 -12v-6q0 -13 2.5 -25t2.5 -26q0 -37 -4 -72.5t-5 -73.5l-7 -10h-79q-9 0 -14.5 -5t-9.5 -12.5t-5.5 -15.5t-1.5 -15zM225 231v45q0 40 6 72.5t33 62.5q5 5 12.5 13t15 15.5t13.5 13l6 5.5h71q12 0 22.5 -11.5t16.5 -19.5q18 -22 28 -39.5t15 -35.5t6.5 -38.5
t1.5 -47.5v-43q-2 -21 -11.5 -43t-25 -39.5t-36 -28.5t-42.5 -11q-29 0 -50.5 11t-38 29t-27 41.5t-16.5 48.5z" />
    <glyph glyph-name="q" unicode="q" horiz-adv-x="566" 
d="M233 -134q0 -18 9 -32t30 -14h255q17 0 22 13t5 26q0 24 -9.5 36.5t-25 18.5t-34.5 7t-37 1l-9 8v579q0 10 -12.5 17t-21.5 7q-16 0 -24 -7.5t-12.5 -16.5t-8 -16.5t-9.5 -7.5q-5 0 -12 4q-14 10 -27.5 20.5t-28 19t-30.5 14t-34 5.5q-6 0 -14 -2t-16 -4.5t-15 -5
t-11 -4.5q-42 -17 -71 -47.5t-47 -68.5t-26.5 -81t-8.5 -85q0 -43 15.5 -87.5t44 -81t67.5 -59.5t86 -23q18 0 35 2.5t34 10.5q9 4 15 10t12 11t13.5 9t18.5 4v-97q0 -5 -3.5 -14t-8.5 -13q-17 0 -36 -0.5t-34.5 -5t-25.5 -16t-10 -34.5zM96 223v9t-0.5 13.5t-0.5 13.5v9
q0 26 2 55.5t19 52.5q13 16 24.5 31.5t24.5 26.5t28.5 18t37.5 7q2 0 10.5 -0.5t11.5 -0.5q22 -8 40 -27.5t31 -44t20 -51t7 -48.5q0 -28 -7 -61.5t-22 -63t-39.5 -49t-59.5 -19.5q-24 0 -45.5 11.5t-38.5 30.5t-28 41.5t-15 45.5z" />
    <glyph glyph-name="r" unicode="r" horiz-adv-x="531" 
d="M17 57q0 -25 19.5 -41t43.5 -16h114q10 3 15.5 3.5t13.5 0.5q17 0 33.5 -2t33.5 -2q15 0 32 1.5t31.5 7t23.5 17t9 31.5q0 24 -19 36.5t-42 12.5q-11 0 -22.5 -2t-22.5 -2t-19 2t-12 13q0 4 -0.5 13t-1 19t-1.5 19t-1 12q0 2 -1.5 10t-2.5 10v113q0 5 5 15.5t12 21.5
t14.5 20.5t11.5 13.5l12 12l19 19l19 19t13 12q4 4 8.5 4.5t9.5 0.5h7t6 -5q1 -14 3.5 -33.5t9.5 -37.5t19 -30.5t32 -12.5q42 0 59.5 26t17.5 63q0 26 -10.5 47.5t-27.5 36.5t-40.5 23.5t-48.5 8.5q-41 0 -76.5 -21t-66.5 -46h-2q-4 0 -7.5 5t-6 12t-4.5 13.5t-4 8.5
q-11 15 -32 20.5t-45 6.5t-47.5 -0.5t-39.5 0.5q0 1 -3 1h-3q-21 0 -33 -14.5t-12 -34.5t13.5 -33.5t33.5 -15.5q5 0 17 -1t26 -1.5t26 -1t17 -0.5l8 -8l6 -118v-19l2 -98q-1 -2 -2.5 -10t-1.5 -10q0 -4 -1 -13.5t-1.5 -20t-1 -19.5t-0.5 -13l-4 -4q-1 0 -8.5 -0.5
t-11.5 -0.5q-15 0 -28.5 2.5t-27.5 2.5q-23 0 -38.5 -13t-15.5 -36z" />
    <glyph glyph-name="s" unicode="s" horiz-adv-x="437" 
d="M10 50q0 -18 7.5 -35.5t29.5 -17.5q18 0 26.5 8t12 18.5t6 20t8.5 12.5q17 -9 31 -23.5t32 -19.5q3 -1 10 -3t14.5 -4t14 -3.5t8.5 -1.5q1 0 11 -0.5t16 -0.5q36 0 69.5 13t60 36.5t42.5 55.5t16 70q0 37 -18.5 68.5t-44.5 55.5q-51 21 -109 31t-114 8q-20 5 -31.5 17
t-11.5 35q0 9 4.5 19t12 18.5t16.5 14.5t18 9q5 0 19 0.5t18 0.5h22t15 -1t14.5 -2.5t21.5 -5.5q22 -6 34 -25t21 -39.5t19.5 -36.5t28.5 -16q21 0 31.5 18.5t10.5 36.5v12q0 6 -1 21.5t-1.5 33t-1 33t-0.5 21.5q1 14 -10.5 24.5t-25.5 10.5q-10 0 -16 -4t-10.5 -10t-9 -13
t-11.5 -12q-30 21 -67.5 31.5t-73.5 15.5h-9q-13 0 -25.5 -3.5t-23.5 -8.5q-48 -20 -73.5 -51t-25.5 -84q0 -46 13.5 -74t36 -44t53 -23t63.5 -11t67 -8t65 -14q17 -7 22.5 -17t5.5 -27q0 -24 -11.5 -40.5t-29 -26.5t-39 -14.5t-42.5 -4.5q-24 0 -42.5 7.5t-33.5 20
t-27.5 29t-25.5 34.5q-6 8 -7 19.5t-8 19.5q-5 5 -12.5 6.5t-13.5 1.5q-13 0 -24 -8.5t-11 -22.5v-118q-5 -10 -5.5 -16.5t-0.5 -16.5z" />
    <glyph glyph-name="t" unicode="t" horiz-adv-x="492" 
d="M159 204q0 -50 12.5 -88t53.5 -70q1 -1 6 -3t10 -4.5l10 -5t6 -2.5q11 -8 17.5 -12.5t13 -7t14.5 -3.5t23 -1q38 0 67 18.5t48.5 47t29.5 63.5t10 69q0 21 -10 39t-35 18q-17 0 -26 -11.5t-14 -28.5t-9.5 -36.5t-12 -36.5t-21.5 -28.5t-38 -11.5q-9 0 -19 6.5t-18.5 15.5
t-14 19t-5.5 18v278l12 11q1 1 12.5 1.5t17.5 0.5q29 0 50.5 -6.5t46.5 -6.5q20 0 32.5 14.5t12.5 34.5q0 21 -15 39t-38 18q-20 0 -39.5 -2.5t-40.5 -2.5h-22q-13 0 -14 1l-7 7q-1 1 -1 13v18q0 24 2.5 46t2.5 45q0 24 -6.5 41.5t-35.5 17.5t-38 -17.5t-10.5 -42
t-1.5 -49.5t-10 -40q-11 -16 -26.5 -19.5t-33.5 -3.5q-17 0 -33.5 -1t-28.5 -11q-12 -11 -23.5 -23t-11.5 -30q0 -12 8.5 -26t22.5 -14h126v-111q-12 -33 -10 -71t2 -73z" />
    <glyph glyph-name="u" unicode="u" horiz-adv-x="590" 
d="M76 206q0 -36 9.5 -72.5t29 -66t49.5 -48.5t71 -19q25 0 46.5 8t40 21.5t35 30t33.5 34.5h4v-43q0 -15 13.5 -24t31.5 -13.5t35.5 -5.5t25.5 -1q14 0 28 1t25.5 5.5t18.5 14.5t7 28q0 20 -9 30.5t-23.5 16t-31 6.5t-31.5 1l-8 8l2 188v19l2 106q-3 10 -3 27t-3 32.5
t-11 27t-26 11.5h-90q-19 0 -29.5 -10t-10.5 -27q0 -19 13.5 -28.5t30 -13.5t30 -5.5t13.5 -5.5v-145q0 -26 -10 -51.5t-25 -48.5t-34 -43.5t-37 -36.5q-10 -9 -25 -11t-27 -2q-29 0 -41.5 17t-16.5 43q0 10 -1.5 35.5t-2.5 54.5t-2 54.5t-1 35.5q0 2 -0.5 16.5t-0.5 21.5
q0 21 2.5 41t2.5 41q0 10 -1.5 22t-6 22.5t-13 17t-23.5 6.5h-82q-18 0 -28.5 -12t-10.5 -29q0 -18 8 -26t20 -11.5t25.5 -6t24.5 -9.5v-10q0 -6 0.5 -13.5t0.5 -14.5v-9q0 -46 -6.5 -91t-6.5 -91z" />
    <glyph glyph-name="v" unicode="v" horiz-adv-x="597" 
d="M96 435q4 0 4 -4q14 -26 23.5 -53.5t19.5 -55.5q1 -3 4.5 -14t7 -23.5t7 -23.5t4.5 -14q1 -1 3.5 -6t5 -11t5 -11.5t2.5 -6.5q1 -4 5 -13t7.5 -19t7 -19t4.5 -12q9 -27 19.5 -64t27.5 -65q8 -13 25 -20t31 -7t30 10.5t19 24.5q26 85 55 168.5t55 168.5q4 7 8 18.5t8 23.5
t8.5 22t10.5 14h23q15 0 28 3t22.5 10t9.5 22t-6.5 24t-16.5 14t-22.5 7.5t-25.5 5.5q-7 0 -23.5 0.5t-35.5 1.5t-35.5 1.5t-23.5 0.5h-11q-21 0 -38.5 -10t-17.5 -33q0 -17 9.5 -23t22.5 -8.5t26.5 -5.5t20.5 -14q0 -2 0.5 -7t0.5 -7q0 -5 -7 -28t-18 -55t-24 -68
t-24.5 -66.5t-21 -51t-12.5 -22.5l-4 4l-3.5 6.5t-8 15.5t-8.5 18t-7 15q-11 25 -17 48t-14 49q-5 13 -13 31.5t-15.5 37.5t-13.5 37.5t-6 32.5q0 12 13.5 15.5t30 6.5t30 9.5t13.5 25.5q0 15 -6.5 23.5t-16.5 13t-22 5.5t-23 1q-14 0 -27.5 -2t-27.5 -2h-2q-2 0 -10.5 2
t-17.5 4t-17 4t-10 2h-10q-15 0 -29 -2t-25.5 -8t-18.5 -16.5t-7 -26.5v-18q16 -21 39 -25t47 -6z" />
    <glyph glyph-name="w" unicode="w" horiz-adv-x="605" 
d="M151 26q9 -12 19.5 -18t25.5 -6q16 0 28 8t17 24q15 56 22.5 113.5t20.5 113.5q2 8 2.5 19.5t1.5 23t4.5 21.5t11.5 15q5 -2 10.5 -24.5t10.5 -56t10 -72.5t11 -74.5t13 -62.5t15 -35q6 -7 17.5 -9.5t20.5 -2.5q13 0 22.5 6.5t17.5 16.5q12 31 21 64t11 66q2 9 7 28
t11 43l12.5 50t13 50t11.5 43t7 28q0 1 1.5 6t3.5 10.5t4 10.5t3 8q1 2 2 5t2 3q1 2 5.5 6.5l9.5 9.5l9.5 9.5l6.5 6.5v13q0 17 -9.5 27t-23.5 15t-30 6.5t-29 1.5q-12 0 -26 -1.5t-26 -7t-20 -15.5t-8 -26q0 -11 6.5 -16t15 -8.5t15 -7t6.5 -9.5v-51q0 -1 -2.5 -13
t-6.5 -28.5l-8 -33t-7 -26.5q0 -2 -2.5 -9.5t-5 -16t-5 -16t-2.5 -9.5q-2 -5 -2 -13t-1 -16t-4 -14t-9 -8l-4 4q0 2 -3 14.5t-6.5 30.5t-5.5 29q-5 23 -6.5 45t-5.5 45q0 1 -2 7.5t-4 14t-4 13.5t-2 8q0 1 -0.5 8.5t-0.5 11.5q0 2 0.5 9.5t0.5 9.5q5 7 12 11t13 8.5t10.5 10
t4.5 14.5q0 19 -13.5 29t-32.5 15t-39 6t-33 1q-4 0 -11.5 -0.5t-8.5 -0.5q-3 0 -9.5 -1.5t-14 -3.5t-14 -4t-9.5 -3q-13 -4 -14.5 -11.5t-1.5 -17.5q0 -15 5 -22t11 -10.5t11 -6t5 -6.5v-47l-39 -180l-8 -16h-4l-3 9.5t-5 14.5q-3 11 -9.5 38.5t-14 59t-14 59.5t-9.5 39v6
q0 8 7.5 11.5t16.5 7.5t16.5 11.5t7.5 23.5q0 18 -9.5 28t-24 15t-30.5 6t-29 1q-14 0 -27.5 -0.5t-24.5 -5t-17.5 -14t-6.5 -26.5q0 -6 -0.5 -13t4.5 -12q1 -2 5.5 -6.5l9.5 -9.5l9.5 -9.5l6.5 -6.5q17 -53 31.5 -111.5t27.5 -111.5q11 -47 20 -92.5t27 -91.5z" />
    <glyph glyph-name="x" unicode="x" 
d="M57 8q37 -1 72 -4.5t71 -3.5q12 0 24 2.5t22 8t16.5 15t6.5 23.5q0 12 -6.5 20.5t-14 14.5t-13.5 10.5t-6 9.5v2q6 15 14 27.5t17.5 24.5t18.5 23.5t17 25.5q5 5 12 5q4 0 16.5 -15t25.5 -34t23 -36t9 -21q-2 -8 -8 -11.5t-13 -7.5t-12.5 -10.5t-5.5 -21.5
q0 -18 12 -32.5t31 -14.5h176q20 0 29.5 17.5t9.5 34.5q0 11 -6 21.5t-17 12.5l-75 16q-8 1 -21 15t-26 31t-23 33t-12 22l-55 63v12q32 35 58 73t60 72q8 8 21.5 8.5t27 2.5t23.5 9.5t10 29.5q0 19 -12 32.5t-31 14.5q-2 0 -13 1t-24.5 1.5t-27.5 1t-21 0.5h-11
q-11 0 -27 -1t-31.5 -5t-26.5 -12.5t-11 -24.5q0 -17 7 -25t15 -12.5t15 -8.5t7 -11q0 -8 -2 -10.5t-10 -10.5q-3 -3 -9.5 -10t-14 -15.5t-14 -15.5t-9.5 -10h-4q-5 0 -14 9.5t-17 22.5t-14 25t-6 18q0 7 5 11t11 7.5t11 9.5t5 18q0 21 -16 33t-35 14q-8 1 -29 2t-45 2.5
t-45 2.5t-30 1h-6q-16 0 -29.5 -7.5t-23.5 -19.5v-18q0 -20 10 -30t25.5 -14t33.5 -4.5t33 -0.5q5 -1 15.5 -12t23.5 -27t27 -35t25.5 -36t19 -30.5t7.5 -17.5v-2q-1 -2 -2 -6t-2 -6l-10 -10t-14.5 -15t-14 -15.5t-8.5 -10.5q-1 -1 -4.5 -6.5t-7.5 -11.5t-7.5 -11t-4.5 -6
q-4 -5 -13.5 -17t-20 -24t-20.5 -22t-16 -11q-12 -1 -28.5 -2t-32 -5.5t-26.5 -14t-11 -27.5q0 -47 47 -53z" />
    <glyph glyph-name="y" unicode="y" horiz-adv-x="597" 
d="M10 -88q0 -27 12 -49.5t31.5 -39t44.5 -25.5t51 -9q34 0 68.5 19.5t54.5 47.5q1 1 4 6.5t6.5 12.5t6 12.5t3.5 7.5q1 1 5.5 7.5t5.5 7.5t2.5 4t1.5 4q38 98 72 192.5t61 194.5q3 12 6.5 27t9 30t13 28t18.5 21h39t31 4.5t20.5 16.5t7.5 36q0 19 -7.5 27t-19.5 10.5
t-26.5 3t-28.5 4.5h-129q-20 0 -30 -11t-10 -28q0 -20 8.5 -29.5t19 -15t19.5 -10t9 -14.5v-5q0 -3 -1 -5q-2 -9 -8.5 -31t-14 -47t-14 -47t-9.5 -31q-2 -4 -5 -15t-7.5 -22.5t-10 -20.5t-11.5 -9t-10.5 6.5t-7.5 14.5t-4.5 16t-2.5 10q-1 3 -4 11.5t-7 18.5t-7.5 19
t-5.5 14q-5 13 -13 28t-15.5 31t-13 31.5t-5.5 29.5q0 9 10 14t21.5 10t21.5 14t10 27q0 10 -5.5 18.5t-14.5 14.5t-19.5 9.5t-19.5 3.5h-156q-13 0 -21 -7.5t-12 -18t-5.5 -22.5t-1.5 -22q0 -14 10 -20t22 -8q3 0 11.5 -1t18 -1.5t18 -1t11.5 -0.5q17 -11 25 -35t10 -43
q5 -13 18.5 -46t28.5 -69.5t28.5 -69.5t18.5 -46q1 -4 4 -11t5 -14.5t4 -14t2 -7.5q1 -1 1 -10v-12q0 -13 -4 -28.5t-10.5 -30.5t-15 -28.5t-17.5 -23.5q-4 -3 -10 -8.5t-11.5 -10.5t-10 -8.5l-4.5 -3.5h-27q-3 0 -3.5 3t-0.5 5q0 10 4 17.5t4 18.5q0 29 -15 49.5t-46 20.5
q-38 0 -59 -28t-21 -65z" />
    <glyph glyph-name="z" unicode="z" horiz-adv-x="484" 
d="M10 53q0 -26 17.5 -39.5t43.5 -13.5q13 0 25 2t26 2q20 0 37.5 -2t37.5 -2h24q13 0 24 6h192q8 0 14.5 5.5t11 14t7 17.5t2.5 16v137q0 8 -3 17.5t-9 18t-14 14t-17 5.5q-23 0 -30.5 -18.5t-10.5 -42.5t-7 -47t-19 -33q-3 -2 -7.5 -4.5t-9.5 -5l-9 -4.5t-5 -2h-177
q0 2 -2 8t-1 8q5 11 14 22t19 22t20 20.5t17 17.5q23 24 44.5 49.5t46.5 48.5l27 27q14 15 25 30t26 29q3 3 12 11.5t19 18t19 18t13 11.5q7 8 7.5 16t0.5 17v9t-1 9q-16 22 -47 27q-8 0 -27 0.5t-41 1t-41.5 1.5t-27.5 1q-34 2 -67.5 7t-67.5 5q-20 0 -41.5 -11.5
t-26.5 -31.5l-28 -118v-12q0 -18 6 -33t28 -15q15 0 24.5 10.5t16 25t12.5 30t15 25.5q16 19 47.5 31.5t56.5 12.5q17 0 34 -3t34 -5q5 -1 5 -6v-7t-0.5 -4.5l-0.5 -2.5l-47 -47l-8 -16l-129 -129q-9 -21 -30 -42.5t-43 -42.5t-39 -42t-17 -43z" />
    <glyph glyph-name="cent" unicode="&#xa2;" horiz-adv-x="641" 
d="M10 -89q0 -17 13.5 -20.5t27.5 -3.5q18 0 29 5.5t19 15.5t15 23t17 27q1 1 5 6t9 11t9 11t5 7q5 7 9.5 14t13.5 9q24 -7 51.5 -13.5t52.5 -6.5q27 0 47.5 15t40.5 29q1 1 7 3.5t13 6t12.5 6t7.5 3.5q11 8 23.5 21.5t23 30t17 33.5t6.5 33t-10 26t-27 10q-12 0 -20.5 -5.5
t-14.5 -14t-11 -18t-11 -18.5q-22 -30 -58 -48.5t-73 -18.5q-2 0 -11 0.5t-11 0.5q-4 1 -4 4v6q0 8 9 24t21.5 34t25 34.5t19.5 26.5q3 4 11 16t16.5 25t16.5 24.5t11 16.5l4 4q22 1 42 5t35 13t24.5 25.5t11.5 42.5q0 5 1 17.5t1.5 26t1 26t0.5 17.5q15 31 34 59t39 56
t38.5 56.5t33.5 59.5q0 1 0.5 4.5t0.5 5.5q0 15 -16 24t-30 9q-13 0 -29 -16.5t-33 -40.5t-34 -53t-32.5 -53t-28 -40.5t-19.5 -16.5q-9 0 -17 4t-17 4h-90q-23 0 -47 -14t-43 -25q-36 -22 -63 -52.5t-45.5 -67t-27.5 -77.5t-9 -83q0 -21 4.5 -45t15.5 -43q3 -5 8.5 -13
t11.5 -16.5t10.5 -17t4.5 -12.5q0 -1 -1.5 -5.5t-2.5 -6.5q-8 -13 -23 -34.5t-30 -44t-26 -42.5t-11 -31zM131 238q0 60 31 113.5t79 87.5l16.5 12t17.5 4q10 0 14.5 -6t5.5 -14.5t0.5 -18t0.5 -16.5q0 -2 2 -9.5t2 -9.5v-14q0 -13 -9 -29.5t-21 -34t-24.5 -33t-19.5 -26.5
q-16 -25 -27.5 -50.5t-35.5 -43.5q-1 -1 -3 -1h-1q-8 0 -13.5 11.5t-8.5 27t-4.5 30t-1.5 20.5z" />
    <glyph glyph-name=".0196" unicode="&#xc4;" horiz-adv-x="609" 
d="M9 57q0 -21 13 -39t36 -18q20 0 39 4t39 4q15 0 28.5 -2t27.5 -2q22 0 37.5 10t15.5 33q0 21 -9.5 29.5t-20.5 13.5t-20.5 11t-9.5 23q0 2 0.5 7t0.5 6l28 59q1 2 9 8.5t10 6.5h157q5 0 9.5 -7t8.5 -16t6 -17t3 -11q1 -2 2 -8t2.5 -13t2.5 -13t1 -9q-3 -8 -10.5 -12.5
t-17 -8.5t-19 -8.5t-16.5 -13.5v-17q0 -18 6.5 -28t17.5 -14.5t25 -5.5t30 -1q24 -1 51 -2.5t52 -1.5q23 0 38 12.5t15 36.5q0 25 -19 37q-7 2 -18 4t-22 5.5t-19.5 9.5t-11.5 16l-94 356q-17 32 -23 67.5t-16 69.5q-3 11 -6.5 28t-10 33.5t-17.5 28.5t-29 12
q-16 0 -26 -9.5t-16 -23t-9.5 -28t-6.5 -25.5q-14 -48 -30.5 -96t-32.5 -96q-8 -22 -11 -43t-12 -43q-3 -10 -9.5 -35t-14 -53t-14 -53t-9.5 -35q-4 -14 -10.5 -35t-21.5 -28q-14 -6 -24 -9t-18.5 -7t-17 -9.5t-18.5 -17.5q0 -2 -0.5 -8.5t-0.5 -8.5zM241 301q0 2 -0.5 6
t-0.5 6q0 26 8 53t16 53q1 3 5.5 15.5t10.5 28.5t11.5 31t8.5 23q1 2 3 7t6 5q1 0 6 -13.5t12 -34t15 -45.5t14.5 -48.5t10.5 -43t4 -27.5q0 -2 -0.5 -6.5t-0.5 -5.5l-4 -4q-21 -2 -40.5 -5t-39.5 -3q-14 0 -24 0.5t-21 7.5zM131 836q0 -26 19.5 -45.5t45.5 -19.5
q29 0 43 21.5t14 47.5q0 27 -12.5 48t-44.5 21q-14 0 -25.5 -6.5t-20.5 -17t-14 -23.5t-5 -26zM358 836q0 -26 14 -44t43 -18q31 0 50 22t19 51t-16.5 45t-44.5 16q-32 0 -48.5 -20t-16.5 -52z" />
    <glyph glyph-name="Aring" unicode="&#xc5;" horiz-adv-x="609" 
d="M9 64q0 -21 13 -39t36 -18q20 0 39 4t39 4q15 0 28.5 -2t27.5 -2q22 0 37.5 10t15.5 33q0 21 -9.5 29.5t-20.5 13.5t-20.5 11t-9.5 23q0 2 0.5 7t0.5 6l28 59q1 2 9 8.5t10 6.5h157q5 0 9.5 -7t8.5 -16t6 -17t3 -11q1 -2 2 -8t2.5 -13t2.5 -13t1 -9q-3 -8 -10.5 -12.5
t-17 -8.5t-19 -8.5t-16.5 -13.5v-17q0 -18 6.5 -28t17.5 -14.5t25 -5.5t30 -1q24 -1 51 -2.5t52 -1.5q23 0 38 12.5t15 36.5q0 25 -19 37q-7 2 -18 4t-22 5.5t-19.5 9.5t-11.5 16l-94 356q-17 32 -23 67.5t-16 69.5q-3 11 -6.5 28t-10 33.5t-17.5 28.5t-29 12
q-16 0 -26 -9.5t-16 -23t-9.5 -28t-6.5 -25.5q-14 -48 -30.5 -96t-32.5 -96q-8 -22 -11 -43t-12 -43q-3 -10 -9.5 -35t-14 -53t-14 -53t-9.5 -35q-4 -14 -10.5 -35t-21.5 -28q-14 -6 -24 -9t-18.5 -7t-17 -9.5t-18.5 -17.5q0 -2 -0.5 -8.5t-0.5 -8.5zM241 308q0 2 -0.5 6
t-0.5 6q0 26 8 53t16 53q1 3 5.5 15.5t10.5 28.5t11.5 31t8.5 23q1 2 3 7t6 5q1 0 6 -13.5t12 -34t15 -45.5t14.5 -48.5t10.5 -43t4 -27.5q0 -2 -0.5 -6.5t-0.5 -5.5l-4 -4q-21 -2 -40.5 -5t-39.5 -3q-14 0 -24 0.5t-21 7.5zM194 882q0 -24 10 -44.5t26.5 -35.5t38 -23.5
t44.5 -8.5t43.5 9.5t35.5 26t24 37t9 43.5q0 52 -32.5 84t-82.5 32q-20 0 -40 -3t-37 -14q-18 -25 -28.5 -48t-10.5 -55zM271 889q0 2 0.5 8l0.5 6l12 12h47q2 0 8 -6t8 -10v-14q0 -20 -9 -28.5t-29 -8.5q-21 0 -29.5 10t-8.5 31z" />
    <glyph glyph-name="AE" unicode="&#xc6;" horiz-adv-x="888" 
d="M735 1q14 -8 27.5 -8.5t29.5 -0.5q3 0 14.5 0.5t14.5 0.5q19 8 37 24.5t18 38.5q0 18 -1 36t-9 34v130q0 16 -13.5 32t-29.5 16q-20 0 -31.5 -19t-11.5 -37v-106q0 -1 -2 -3.5t-4 -4.5l-27 -27q-11 -1 -38 -2t-58 -2.5t-58 -2.5t-38 -1h-13q-7 0 -16.5 2.5t-9.5 12.5v204
l11 12h51q6 0 14 -7.5t15.5 -17t13.5 -19.5t8 -15q0 -11 0.5 -28.5t4 -34t13 -28t27.5 -11.5q15 0 24.5 8t9.5 24v337q0 14 -11 24.5t-25 10.5q-17 0 -25 -13.5t-11 -32t-3.5 -37.5t-3.5 -31q-7 -9 -19.5 -16t-26.5 -12.5t-28 -8t-24 -2.5q-4 0 -9.5 0.5t-5.5 7.5v184
q0 6 6.5 8.5t15 3.5t17 0.5t12.5 -0.5h19q7 0 26 -0.5t40.5 -1.5t40 -1.5t26.5 -0.5q7 0 15.5 -6t16 -15t12.5 -18.5t7 -15.5q3 -14 3 -40t3 -52t11 -45.5t28 -19.5q17 0 29 15t12 32v220q0 13 -6.5 21t-16.5 13.5t-21.5 8t-21.5 4.5q-16 0 -56 0.5t-85 1.5t-85 1.5t-56 0.5
h-137q-11 3 -17.5 3.5t-16.5 0.5q-29 0 -39.5 -10t-14 -25t-6.5 -34t-16 -37l-71 -239l-8 -20l-70 -231q-6 -18 -22.5 -22t-34 -7.5t-31.5 -14t-14 -40.5q0 -13 6.5 -21.5t17 -14t22 -7.5t22.5 -2q15 0 29.5 2t29.5 2q16 0 30 -2t29 -2q19 0 36 8t17 28q0 23 -17 41t-38 25
q0 2 -0.5 7.5t-0.5 7.5q0 20 8 41t25 34q4 0 14 0.5t21 1t21 1.5t14 1q2 0 10 1.5t10 2.5h102l7 -8v-86l-4 -4q-18 -1 -36.5 -2t-34 -6t-25.5 -17t-10 -35v-9q0 -5 1 -6l15 -15l47 -14h145q11 -6 22 -6h22h23q12 0 24 4h121zM249 312v6q1 5 4 17.5t7 26t7.5 25.5t5.5 17
q3 10 11.5 36t18.5 55t19 54.5t13 35.5q11 26 26 32.5t43 6.5q10 0 17 -1t12 -15q0 -2 0.5 -10.5t0.5 -10.5q0 -11 -0.5 -21t-6.5 -20v-251h-151q-8 0 -17.5 4t-9.5 13z" />
    <glyph glyph-name="Odieresis" unicode="&#xd6;" horiz-adv-x="543" 
d="M263 756q-50 0 -88 -20.5t-66 -53.5t-47 -74.5t-32 -83.5q-2 -7 -5.5 -19.5t-6.5 -25t-5.5 -22.5t-2.5 -11v-161q0 -1 1.5 -7t3 -13.5t3.5 -15t4 -11.5q6 -19 17 -44t25.5 -50.5t31.5 -47.5t35 -34q2 -2 10.5 -6t17.5 -8.5l17 -8.5l10 -5q22 -11 40.5 -19t44.5 -8
q15 0 24 2.5t16.5 6.5t15.5 8.5t20 9.5q54 21 89.5 60.5t56.5 89t29.5 105t8.5 108.5q0 54 -14 105t-37 101q-15 15 -25 33.5t-22 36.5q-6 9 -16.5 15t-18.5 12q-17 13 -32.5 23.5t-31.5 17.5t-33 11t-38 4zM96 383q0 33 10.5 81t31.5 92t53 75t76 31q28 0 45 -13.5
t39 -30.5q23 -18 37 -37.5t23 -40.5t14.5 -44.5t11.5 -49.5v-129q0 -17 -5.5 -27t-10.5 -24q-5 -18 -14 -42.5t-23 -46t-33 -37t-43 -15.5h-98q-11 0 -25 13t-27.5 30t-24 35t-13.5 27q-12 36 -18 75.5t-6 77.5zM84 875q0 -26 19.5 -45.5t45.5 -19.5q30 0 43.5 21.5
t13.5 47.5q0 27 -12.5 48t-44.5 21q-14 0 -25.5 -6.5t-20.5 -17t-14 -23.5t-5 -26zM311 875q0 -26 14.5 -44t43.5 -18q30 0 49 22.5t19 51.5t-16.5 45t-44.5 16q-32 0 -48.5 -20.5t-16.5 -52.5z" />
    <glyph glyph-name=".0216" unicode="&#xd8;" horiz-adv-x="609" 
d="M10 17q0 -17 13.5 -20.5t27.5 -3.5q24 0 38.5 12t25.5 29.5t21 36t27 32.5q7 -16 28 -33t46.5 -30.5t52.5 -22.5t47 -9q15 0 24.5 2.5t16.5 7t15 9t20 9.5q54 20 89.5 59.5t56.5 89t29.5 105t8.5 108.5q0 54 -14 105t-37 101q-7 7 -15.5 18.5t-8.5 22.5q0 1 0.5 3t0.5 3
q5 7 13.5 17.5t17.5 22t16 23.5t8 23q0 2 -1.5 11.5t-2.5 11.5q-10 7 -22 7.5t-23 0.5h-22q-3 -3 -10.5 -12.5t-15 -20t-14 -18.5t-9.5 -8q-6 0 -15.5 5.5t-20.5 13t-21.5 14.5t-18.5 10q-15 5 -25 5h-28q-50 0 -87.5 -20.5t-65.5 -53.5t-47.5 -74.5t-32.5 -83.5
q-2 -7 -5.5 -19.5t-6.5 -25t-5 -22t-2 -11.5v-160q0 -26 13 -57t26 -53q-11 -8 -29 -31t-35 -48.5t-29.5 -48.5t-12.5 -32zM217 189q0 8 4 9t8 6q20 28 39.5 59.5t35.5 62.5q0 1 1.5 7.5t1.5 7.5q2 5 5 14t3 10q1 1 4 2t4 2q6 4 5 7.5t3 11.5q3 7 10 8.5t10 7.5q0 1 1.5 7.5
t1.5 8.5q4 6 7.5 7t8.5 4l4 6.5t8 14t8 14.5t4 8q2 3 8 9l13 13l13 13t9 8q3 3 5.5 11t5.5 16t7 14t9 6q9 -16 15 -30t10 -27.5t7 -28t7 -31.5v-129q0 -17 -5.5 -26.5t-10.5 -24.5q-5 -18 -14 -42.5t-23 -46t-33 -37t-43 -15.5h-98q-9 0 -19 6.5t-19 16.5t-15 20.5t-6 19.5z
M162 384q0 33 10.5 81t31.5 92t53 75t76 31q6 0 18 -2.5t23 -7t19.5 -11.5t8.5 -15q0 -18 -11 -27.5t-17 -23.5q-14 -31 -32 -58t-38 -55q-8 -11 -9 -18t-11 -14q-3 -2 -3.5 -3.5t-0.5 -3.5t-0.5 -5t-3.5 -7q-11 -17 -25.5 -31t-25.5 -32q-5 -8 -10 -19t-10.5 -22.5
t-12 -21.5t-14.5 -15q-6 9 -9.5 23.5t-5 31t-1.5 31.5v27z" />
    <glyph glyph-name="germandbls" unicode="&#xdf;" horiz-adv-x="601" 
d="M10 50q0 -17 6.5 -27.5t17 -16t24.5 -7.5t28 -2q10 0 36 0.5t54 4t49.5 10.5t21.5 20v528q0 4 2.5 14t7 20t10.5 17.5t13 7.5h90q5 -4 14 -10t18 -13t16 -14.5t7 -13.5v-70q0 -6 -4.5 -12t-10.5 -11.5t-13 -9.5t-11 -6q-14 -6 -35 -7t-41.5 -5t-35 -13.5t-14.5 -32.5
q0 -11 10 -20.5t22 -9.5h113l3 -2t5 -4q1 -1 5 -4.5t8.5 -7.5t8.5 -7.5t5 -4.5q10 -8 22 -14t18 -17q3 -5 6.5 -13t7.5 -15.5t6.5 -13l2.5 -5.5v-82l-4.5 -11t-7.5 -16q-11 -26 -32.5 -40.5t-47.5 -21t-53.5 -7t-50.5 1.5q-18 2 -26.5 -12.5t-8.5 -29.5q0 -18 11.5 -33
t31.5 -15h90q29 0 51 14t43 29q12 8 20 10t15 14q10 16 20.5 36.5t18 42.5t12.5 44.5t5 42.5q0 32 -10.5 63t-29.5 56q-3 4 -13.5 14t-22.5 21.5t-21.5 20.5t-9.5 11q0 9 6.5 16t9.5 15q8 19 14 39.5t6 40.5q0 24 -9 55.5t-23 52.5q-34 36 -72.5 61t-89.5 25q-24 0 -49.5 -8
t-48 -22.5t-38.5 -35.5t-19 -48q-2 -15 -1.5 -34.5t-7.5 -35.5v-411q0 -4 -4.5 -14t-9.5 -13q-3 0 -14.5 -0.5t-14.5 -0.5q-16 0 -30 2.5t-29 2.5q-23 0 -36 -15.5t-13 -37.5z" />
    <glyph glyph-name=".0228" unicode="&#xe4;" horiz-adv-x="558" 
d="M10 155q0 -47 18.5 -82.5t59.5 -59.5q8 -5 16 -10.5t19 -5.5h90q17 0 33 6.5t31 16t29.5 19.5t28.5 17h5q7 0 12.5 -5t10 -11.5l9 -13t10.5 -9.5q17 -11 31 -15.5t33 -4.5q24 0 42.5 11t31 28.5t19.5 39.5t7 44q0 10 -2 20.5t-7 19.5t-13 15t-19 6q-21 0 -27.5 -14
t-9.5 -31.5t-7 -31.5t-20 -14q-24 0 -24 28v169q5 12 4.5 27.5t-0.5 27.5v31q0 3 -1.5 10.5t-3.5 16t-4 16.5t-3 11q-3 12 -15.5 29t-29 32t-34 26t-30.5 11h-153q-16 0 -28 -9.5t-23 -17.5q-13 -9 -26 -19.5t-23 -22.5t-16 -26t-6 -32q0 -31 20.5 -52t52.5 -21
q21 0 33.5 8.5t19 21t9.5 27.5l5.5 27.5t5.5 21t11 8.5h94q1 0 13 -6l18 -9q16 -9 22 -24t6 -32q0 -24 -24 -32t-60 -11t-78.5 -6.5t-78.5 -19t-60 -49t-24 -95.5zM88 156q0 11 7.5 26t12.5 22q10 15 23 16q25 4 49.5 6t48.5 6q3 0 16.5 2.5t28.5 5t28.5 5t16.5 2.5l2 1
q1 0 1.5 -0.5l0.5 -0.5q1 0 4 -1.5t4 -1.5v-12q0 -43 -13 -70t-50 -52q-2 -1 -9.5 -5t-9.5 -6q-4 -2 -9.5 -5t-6.5 -3h-102q-10 0 -18 7t-13.5 17.5t-8.5 21.5t-3 19zM61 668q0 -26 19 -45.5t45 -19.5q30 0 43.5 21.5t13.5 47.5q0 27 -12.5 48t-43.5 21q-14 0 -25.5 -6.5
t-20.5 -17t-14 -23.5t-5 -26zM288 668q0 -26 14 -43.5t43 -17.5q30 0 49 22t19 51t-16.5 45t-44.5 16q-32 0 -48 -20.5t-16 -52.5z" />
    <glyph glyph-name=".0229" unicode="&#xe5;" horiz-adv-x="558" 
d="M10 158q0 -47 18.5 -82.5t59.5 -59.5q8 -5 16 -10.5t19 -5.5h90q17 0 33 6.5t31 16t29.5 19.5t28.5 17h5q7 0 12.5 -5t10 -11.5l9 -13t10.5 -9.5q17 -11 31 -15.5t33 -4.5q24 0 42.5 11t31 28.5t19.5 39.5t7 44q0 10 -2 20.5t-7 19.5t-13 15t-19 6q-21 0 -27.5 -14
t-9.5 -31.5t-7 -31.5t-20 -14q-24 0 -24 28v169q5 12 4.5 27.5t-0.5 27.5v31q0 3 -1.5 10.5t-3.5 16t-4 16.5t-3 11q-3 12 -15.5 29t-29 32t-34 26t-30.5 11h-153q-16 0 -28 -9.5t-23 -17.5q-13 -9 -26 -19.5t-23 -22.5t-16 -26t-6 -32q0 -31 20.5 -52t52.5 -21
q21 0 33.5 8.5t19 21t9.5 27.5l5.5 27.5t5.5 21t11 8.5h94q1 0 13 -6l18 -9q16 -9 22 -24t6 -32q0 -24 -24 -32t-60 -11t-78.5 -6.5t-78.5 -19t-60 -49t-24 -95.5zM88 159q0 11 7.5 26t12.5 22q10 15 23 16q25 4 49.5 6t48.5 6q3 0 16.5 2.5t28.5 5t28.5 5t16.5 2.5l2 1
q1 0 1.5 -0.5l0.5 -0.5q1 0 4 -1.5t4 -1.5v-12q0 -43 -13 -70t-50 -52q-2 -1 -9.5 -5t-9.5 -6q-4 -2 -9.5 -5t-6.5 -3h-102q-10 0 -18 7t-13.5 17.5t-8.5 21.5t-3 19zM108 679q0 -23 10 -43.5t26.5 -35.5t38 -24t44.5 -9t43.5 9.5t35.5 26t24 37t9 43.5q0 52 -32.5 84
t-83.5 32q-19 0 -39 -3t-37 -13q-18 -26 -28.5 -49t-10.5 -55zM185 686q0 2 0.5 8l0.5 6l12 12h47q2 0 8 -6t7 -9q1 -1 1 -7v-8q0 -37 -38 -37q-21 0 -29.5 10t-8.5 31z" />
    <glyph glyph-name=".0246" unicode="&#xf6;" horiz-adv-x="488" 
d="M10 275q0 -22 6.5 -53t18.5 -62t28.5 -58t36.5 -40q1 -1 8.5 -4.5t16 -8l17 -9t13.5 -6.5q6 -2 20 -4t19 -3q11 -3 17 -6.5t11.5 -6.5t13.5 -5t23 -2q30 0 60.5 16t56.5 40.5t45.5 54.5t27.5 57q1 6 5 22t8.5 33.5t8 33t5.5 21.5q0 2 0.5 10.5t0.5 11.5q0 26 -6.5 50.5
t-17 48t-23 46t-24.5 45.5q-1 0 -2 1.5t-2 2.5q-35 30 -70 48.5t-83 18.5q-63 0 -108.5 -24.5t-74.5 -65.5t-42.5 -94t-13.5 -109zM96 274q0 28 2.5 53t11 47.5t23 42.5t38.5 37q6 4 18 11.5t13 7.5h63q10 -6 24.5 -11t28 -11.5t25 -15t16.5 -21.5q11 -29 17.5 -55.5
t6.5 -57.5q0 -53 -14 -93.5t-57 -75.5q-18 -7 -32.5 -7.5t-34.5 -0.5h-21q-13 0 -14 1q-5 0 -12 1t-13.5 2t-12 2.5l-5.5 1.5l-47 47q-6 6 -10.5 18.5t-7.5 26.5t-4.5 28t-1.5 22zM49 679q0 -26 19.5 -45.5t45.5 -19.5q29 0 43 21.5t14 47.5q0 27 -12.5 48t-44.5 21
q-14 0 -25.5 -6.5t-20.5 -17t-14 -23.5t-5 -26zM276 679q0 -26 14 -44t43 -18q31 0 50 22t19 51t-16.5 45t-44.5 16q-32 0 -48.5 -20t-16.5 -52z" />
    <glyph glyph-name=".0248" unicode="&#xf8;" horiz-adv-x="503" 
d="M10 -3q0 -17 13.5 -20.5t27.5 -3.5q16 0 27 5t19 13t15 19.5t15 25.5h4h4q23 -8 37.5 -13.5t36.5 -10.5q12 -3 18 -6.5t11.5 -6.5t13 -5t22.5 -2q30 0 60.5 16t56.5 40.5t45.5 54.5t27.5 58q1 6 5 21.5t8.5 33t8 33t5.5 21.5q0 2 0.5 11t0.5 11q0 32 -11.5 69t-28.5 66
q-8 12 -18 25.5t-10 29.5q0 7 8.5 13t11.5 14t5 16t7 15q6 10 17 20t11 21q0 17 -13 24.5t-27 8.5q-19 2 -33 -10.5t-24 -28.5t-16.5 -29.5t-10.5 -13.5q-24 0 -47 10t-49 10q-63 0 -108 -24.5t-74.5 -65t-43 -93.5t-13.5 -109q0 -42 13.5 -78.5t30.5 -75.5v-2q0 -13 -9 -26
t-20.5 -26t-20.5 -27t-9 -28zM182 118v4q0 3 6.5 12t15 19.5t16 19t9.5 11.5q20 28 39.5 59t34.5 62q1 2 2.5 8.5t1.5 7.5q2 5 5 14t3 10q1 0 4 1.5t4 1.5q6 5 4.5 8.5t3.5 11.5q3 7 10 8.5t9 7.5q2 4 4 13.5t10 9.5h2q1 -1 4 -3.5t4 -4.5q11 -29 17.5 -55t6.5 -58
q0 -53 -14 -93t-57 -75q-17 -7 -31.5 -8t-34.5 -1q-23 0 -39.5 1t-39.5 8zM111 259q0 56 13.5 100.5t61.5 78.5q6 5 18 12.5t13 7.5h63l23 -12q-1 -2 -3.5 -9.5t-3.5 -9.5q-4 -9 -8.5 -11t-7.5 -9q-9 -22 -25 -39.5t-30 -38.5q-10 -17 -18.5 -36t-20.5 -34
q-16 -20 -29 -32.5t-22 -34.5q-1 -2 -2 -4.5t-2 -3.5h-2h-2q-7 19 -11.5 37t-4.5 38z" />
    <glyph glyph-name="OE" unicode="&#x152;" horiz-adv-x="892" 
d="M10 495v-271q0 -11 5.5 -25t13.5 -28t17 -27t15 -22q20 -30 40.5 -53.5t45.5 -40.5t55 -26t69 -9h13q4 1 14 4.5t21.5 7t21.5 7t14 5.5q8 3 15.5 9.5t14.5 13t15 11.5t18 5h4q2 -8 5.5 -17.5t9 -17.5t13.5 -13t19 -5h301q10 -5 16.5 -5.5t16.5 -0.5q35 0 56 20t21 55
q0 22 -4 43.5t-4 44.5q0 16 2.5 31t2.5 31q0 10 -1 25t-5.5 28t-13 22.5t-24.5 9.5q-15 0 -28 -14t-13 -30v-105q-5 -5 -9 -14t-9.5 -17t-11.5 -14t-15 -6h-212l-1.5 2.5t-2.5 4.5l-4 12v192q0 5 5 12.5t11 7.5h47q9 0 17 -7t14.5 -17t11.5 -19.5t8 -15.5q0 -3 0.5 -12
t1 -19t1.5 -19t1 -13q2 -17 10 -26.5t21 -20.5h10q15 0 24 15t9 28v326q0 15 -9.5 25t-23.5 10q-17 0 -23.5 -11t-9 -27t-5 -35t-11 -35t-27 -27t-53.5 -11q-4 0 -10.5 0.5t-7.5 0.5l-12 12v153q0 2 3 14t5 17q1 1 2 2.5t2 1.5h192q9 0 16 -7t12 -13q3 -3 7 -9t8 -11.5
t7 -10l3 -4.5v-118q0 -17 14 -28t29 -11q17 0 29 10.5t12 28.5v232q0 13 -10.5 25t-24.5 12h-263q-11 7 -27 6.5t-28 -0.5q-19 0 -34 -0.5t-27 -5t-20 -15t-12 -30.5h-4q-32 34 -73 50.5t-86 16.5q-30 0 -62 -7.5t-58 -24.5l-10 -10t-15.5 -15t-15.5 -15.5t-10 -10.5
q-1 -1 -4 -5.5t-3 -6.5q-2 -2 -8 -9.5t-8 -9.5q-2 -5 -7.5 -16t-11 -23.5t-10.5 -24t-6 -15.5q-1 -2 -3 -9t-5 -15.5t-5 -16t-3 -9.5t-2 -4.5t-2 -3.5zM80 363q0 34 6.5 74.5t20.5 79t36.5 70t54.5 49.5q3 2 10 5t10 3h74q2 0 8.5 -3t14.5 -6.5t16 -7.5t12 -7q24 -16 42 -45
t29.5 -62.5t17 -68t5.5 -61.5q0 -44 -9 -86.5t-22 -84.5q-10 -29 -27.5 -45t-43.5 -33q-10 -7 -17.5 -12t-14.5 -8.5t-15.5 -5.5t-20.5 -2q-14 0 -35.5 1.5t-33.5 6.5q-1 1 -4.5 4t-7.5 6t-7 6l-4 4q-25 19 -43 46t-29.5 57t-17 62.5t-5.5 63.5z" />
    <glyph glyph-name=".0150" unicode="&#x2013;" horiz-adv-x="405" 
d="M10 380q0 -23 18 -39t41 -16h129l19 6h137q19 0 29.5 18t10.5 34q0 11 -5.5 18t-13.5 11t-18 6.5t-19 4.5q-38 1 -76.5 4.5t-76.5 3.5h-15t-15 -4q-5 0 -18 -0.5t-18 -0.5q-15 0 -28.5 2.5t-27.5 2.5q-21 0 -37 -15.5t-16 -35.5z" />
    <glyph glyph-name="sf302" unicode="&#xe002;" horiz-adv-x="574" 
d="M351 212q8 -11 12 -23.5t11 -23.5q16 -27 31.5 -56t27.5 -58q9 -22 17.5 -45.5t25.5 -40.5q8 -8 20 -8h21h9t15 0.5t14.5 3t6.5 8.5v27q-1 1 -4.5 10.5t-9.5 23t-9 21.5q-14 30 -32 58t-35 56q-12 19 -20 40.5t-19 41.5q-31 51 -55.5 106t-50.5 109q-43 90 -93 175
t-95 174q-2 4 -6.5 13.5t-9.5 21t-9.5 21.5t-5.5 14q-12 20 -33 20q-8 0 -19 -1t-21.5 -4t-17.5 -9.5t-7 -17.5v-8q24 -54 55 -106.5t59 -104.5q1 -2 3.5 -6t3.5 -6l102 -199l8 -12z" />
    </font>
</defs>
</svg>
